M48
; DRILL file {KiCad (5.1.10-1-10_14)} date Thursday, February 17, 2022 at 11:12:55 PM
; FORMAT={-:-/ absolute / metric / decimal}
; #@! TF.CreationDate,2022-02-17T23:12:55-06:00
; #@! TF.GenerationSoftware,Kicad,Pcbnew,(5.1.10-1-10_14)
; #@! TF.FileFunction,Plated,1,2,PTH
FMAT,2
METRIC
T1C0.400
T2C0.800
T3C1.000
%
G90
G05
T1
X55.1Y-49.2
X60.05Y-34.2
X60.05Y-38.9
X61.475Y-40.075
X64.375Y-41.475
X64.45Y-38.75
X64.725Y-46.325
X75.925Y-52.3
X76.45Y-40.125
X76.55Y-45.8
X77.075Y-52.95
X78.05Y-42.8
X78.225Y-53.75
X78.9Y-40.8
X79.25Y-54.6
X81.4Y-52.3
X81.85Y-44.35
X81.85Y-47.0
X82.875Y-51.775
X83.0Y-45.8
T2
X55.6Y-56.75
X55.6Y-58.75
X55.6Y-60.75
T3
X55.65Y-31.23
X55.65Y-33.77
X55.65Y-36.31
X55.65Y-38.85
X55.65Y-41.39
X55.65Y-43.93
X55.65Y-46.47
X59.56Y-62.55
X62.1Y-62.55
X66.71Y-57.75
X69.25Y-57.75
X71.65Y-31.23
X71.65Y-33.77
X71.65Y-36.31
X71.65Y-38.85
X71.65Y-41.39
X71.65Y-43.93
X71.65Y-46.47
X71.66Y-49.55
X74.2Y-49.55
X76.85Y-31.2
X76.87Y-57.75
X79.39Y-31.2
X79.41Y-57.75
X81.93Y-31.2
X81.95Y-57.75
X84.47Y-31.2
X84.49Y-57.75
X92.65Y-31.25
X92.65Y-33.79
X92.65Y-36.33
X92.65Y-38.87
X92.65Y-41.41
X92.65Y-43.95
X92.65Y-46.49
X92.65Y-49.03
X92.65Y-51.57
X92.65Y-54.11
X92.65Y-56.65
X92.65Y-59.19
T0
M30
