%FSLAX45Y45*%
G04 Gerber Fmt 4.5, Leading zero omitted, Abs format (unit mm)*
G04 Created by KiCad (PCBNEW (5.1.10-1-10_14)) date 2022-02-17 23:12:56*
%MOMM*%
%LPD*%
G01*
G04 APERTURE LIST*
%TA.AperFunction,Profile*%
%ADD10C,0.050000*%
%TD*%
%ADD11C,0.200000*%
%ADD12C,0.300000*%
G04 APERTURE END LIST*
D10*
X9450000Y-2900000D02*
X5300000Y-2900000D01*
X9450000Y-6450000D02*
X9450000Y-2900000D01*
X5300000Y-6450000D02*
X9450000Y-6450000D01*
X5300000Y-2900000D02*
X5300000Y-6450000D01*
D11*
X5490000Y-4900000D02*
X5530000Y-4940000D01*
X5530000Y-4900000D02*
X5490000Y-4940000D01*
X5985000Y-3400000D02*
X6025000Y-3440000D01*
X6025000Y-3400000D02*
X5985000Y-3440000D01*
X5985000Y-3870000D02*
X6025000Y-3910000D01*
X6025000Y-3870000D02*
X5985000Y-3910000D01*
X6127500Y-3987500D02*
X6167500Y-4027500D01*
X6167500Y-3987500D02*
X6127500Y-4027500D01*
X6417500Y-4127500D02*
X6457500Y-4167500D01*
X6457500Y-4127500D02*
X6417500Y-4167500D01*
X6425000Y-3855000D02*
X6465000Y-3895000D01*
X6465000Y-3855000D02*
X6425000Y-3895000D01*
X6452500Y-4612500D02*
X6492500Y-4652500D01*
X6492500Y-4612500D02*
X6452500Y-4652500D01*
X7572500Y-5210000D02*
X7612500Y-5250000D01*
X7612500Y-5210000D02*
X7572500Y-5250000D01*
X7625015Y-3992515D02*
X7665015Y-4032515D01*
X7665015Y-3992515D02*
X7625015Y-4032515D01*
X7635000Y-4560000D02*
X7675000Y-4600000D01*
X7675000Y-4560000D02*
X7635000Y-4600000D01*
X7687500Y-5275000D02*
X7727500Y-5315000D01*
X7727500Y-5275000D02*
X7687500Y-5315000D01*
X7785000Y-4260000D02*
X7825000Y-4300000D01*
X7825000Y-4260000D02*
X7785000Y-4300000D01*
X7802500Y-5355000D02*
X7842500Y-5395000D01*
X7842500Y-5355000D02*
X7802500Y-5395000D01*
X7870000Y-4060000D02*
X7910000Y-4100000D01*
X7910000Y-4060000D02*
X7870000Y-4100000D01*
X7905000Y-5440000D02*
X7945000Y-5480000D01*
X7945000Y-5440000D02*
X7905000Y-5480000D01*
X8120000Y-5210000D02*
X8160000Y-5250000D01*
X8160000Y-5210000D02*
X8120000Y-5250000D01*
X8165000Y-4415000D02*
X8205000Y-4455000D01*
X8205000Y-4415000D02*
X8165000Y-4455000D01*
X8165000Y-4680000D02*
X8205000Y-4720000D01*
X8205000Y-4680000D02*
X8165000Y-4720000D01*
X8267500Y-5157500D02*
X8307500Y-5197500D01*
X8307500Y-5157500D02*
X8267500Y-5197500D01*
X8280000Y-4560000D02*
X8320000Y-4600000D01*
X8320000Y-4560000D02*
X8280000Y-4600000D01*
X5600000Y-5675000D02*
G75*
G03*
X5600000Y-5675000I-40000J0D01*
G01*
X5600000Y-5875000D02*
G75*
G03*
X5600000Y-5875000I-40000J0D01*
G01*
X5600000Y-6075000D02*
G75*
G03*
X5600000Y-6075000I-40000J0D01*
G01*
X5565000Y-3073000D02*
X5565000Y-3173000D01*
X5515000Y-3123000D02*
X5615000Y-3123000D01*
X5565000Y-3327000D02*
X5565000Y-3427000D01*
X5515000Y-3377000D02*
X5615000Y-3377000D01*
X5565000Y-3581000D02*
X5565000Y-3681000D01*
X5515000Y-3631000D02*
X5615000Y-3631000D01*
X5565000Y-3835000D02*
X5565000Y-3935000D01*
X5515000Y-3885000D02*
X5615000Y-3885000D01*
X5565000Y-4089000D02*
X5565000Y-4189000D01*
X5515000Y-4139000D02*
X5615000Y-4139000D01*
X5565000Y-4343000D02*
X5565000Y-4443000D01*
X5515000Y-4393000D02*
X5615000Y-4393000D01*
X5565000Y-4597000D02*
X5565000Y-4697000D01*
X5515000Y-4647000D02*
X5615000Y-4647000D01*
X5956000Y-6205000D02*
X5956000Y-6305000D01*
X5906000Y-6255000D02*
X6006000Y-6255000D01*
X6210000Y-6205000D02*
X6210000Y-6305000D01*
X6160000Y-6255000D02*
X6260000Y-6255000D01*
X6671000Y-5725000D02*
X6671000Y-5825000D01*
X6621000Y-5775000D02*
X6721000Y-5775000D01*
X6925000Y-5725000D02*
X6925000Y-5825000D01*
X6875000Y-5775000D02*
X6975000Y-5775000D01*
X7165000Y-3073000D02*
X7165000Y-3173000D01*
X7115000Y-3123000D02*
X7215000Y-3123000D01*
X7165000Y-3327000D02*
X7165000Y-3427000D01*
X7115000Y-3377000D02*
X7215000Y-3377000D01*
X7165000Y-3581000D02*
X7165000Y-3681000D01*
X7115000Y-3631000D02*
X7215000Y-3631000D01*
X7165000Y-3835000D02*
X7165000Y-3935000D01*
X7115000Y-3885000D02*
X7215000Y-3885000D01*
X7165000Y-4089000D02*
X7165000Y-4189000D01*
X7115000Y-4139000D02*
X7215000Y-4139000D01*
X7165000Y-4343000D02*
X7165000Y-4443000D01*
X7115000Y-4393000D02*
X7215000Y-4393000D01*
X7165000Y-4597000D02*
X7165000Y-4697000D01*
X7115000Y-4647000D02*
X7215000Y-4647000D01*
X7166000Y-4905000D02*
X7166000Y-5005000D01*
X7116000Y-4955000D02*
X7216000Y-4955000D01*
X7420000Y-4905000D02*
X7420000Y-5005000D01*
X7370000Y-4955000D02*
X7470000Y-4955000D01*
X7685000Y-3070000D02*
X7685000Y-3170000D01*
X7635000Y-3120000D02*
X7735000Y-3120000D01*
X7687000Y-5725000D02*
X7687000Y-5825000D01*
X7637000Y-5775000D02*
X7737000Y-5775000D01*
X7939000Y-3070000D02*
X7939000Y-3170000D01*
X7889000Y-3120000D02*
X7989000Y-3120000D01*
X7941000Y-5725000D02*
X7941000Y-5825000D01*
X7891000Y-5775000D02*
X7991000Y-5775000D01*
X8193000Y-3070000D02*
X8193000Y-3170000D01*
X8143000Y-3120000D02*
X8243000Y-3120000D01*
X8195000Y-5725000D02*
X8195000Y-5825000D01*
X8145000Y-5775000D02*
X8245000Y-5775000D01*
X8447000Y-3070000D02*
X8447000Y-3170000D01*
X8397000Y-3120000D02*
X8497000Y-3120000D01*
X8449000Y-5725000D02*
X8449000Y-5825000D01*
X8399000Y-5775000D02*
X8499000Y-5775000D01*
X9265000Y-3075000D02*
X9265000Y-3175000D01*
X9215000Y-3125000D02*
X9315000Y-3125000D01*
X9265000Y-3329000D02*
X9265000Y-3429000D01*
X9215000Y-3379000D02*
X9315000Y-3379000D01*
X9265000Y-3583000D02*
X9265000Y-3683000D01*
X9215000Y-3633000D02*
X9315000Y-3633000D01*
X9265000Y-3837000D02*
X9265000Y-3937000D01*
X9215000Y-3887000D02*
X9315000Y-3887000D01*
X9265000Y-4091000D02*
X9265000Y-4191000D01*
X9215000Y-4141000D02*
X9315000Y-4141000D01*
X9265000Y-4345000D02*
X9265000Y-4445000D01*
X9215000Y-4395000D02*
X9315000Y-4395000D01*
X9265000Y-4599000D02*
X9265000Y-4699000D01*
X9215000Y-4649000D02*
X9315000Y-4649000D01*
X9265000Y-4853000D02*
X9265000Y-4953000D01*
X9215000Y-4903000D02*
X9315000Y-4903000D01*
X9265000Y-5107000D02*
X9265000Y-5207000D01*
X9215000Y-5157000D02*
X9315000Y-5157000D01*
X9265000Y-5361000D02*
X9265000Y-5461000D01*
X9215000Y-5411000D02*
X9315000Y-5411000D01*
X9265000Y-5615000D02*
X9265000Y-5715000D01*
X9215000Y-5665000D02*
X9315000Y-5665000D01*
X9265000Y-5869000D02*
X9265000Y-5969000D01*
X9215000Y-5919000D02*
X9315000Y-5919000D01*
D12*
X5583928Y-6918214D02*
X5583928Y-6618214D01*
X5655357Y-6618214D01*
X5698214Y-6632500D01*
X5726786Y-6661071D01*
X5741071Y-6689643D01*
X5755357Y-6746786D01*
X5755357Y-6789643D01*
X5741071Y-6846786D01*
X5726786Y-6875357D01*
X5698214Y-6903929D01*
X5655357Y-6918214D01*
X5583928Y-6918214D01*
X5883928Y-6918214D02*
X5883928Y-6718214D01*
X5883928Y-6775357D02*
X5898214Y-6746786D01*
X5912500Y-6732500D01*
X5941071Y-6718214D01*
X5969643Y-6718214D01*
X6069643Y-6918214D02*
X6069643Y-6718214D01*
X6069643Y-6618214D02*
X6055357Y-6632500D01*
X6069643Y-6646786D01*
X6083928Y-6632500D01*
X6069643Y-6618214D01*
X6069643Y-6646786D01*
X6255357Y-6918214D02*
X6226786Y-6903929D01*
X6212500Y-6875357D01*
X6212500Y-6618214D01*
X6412500Y-6918214D02*
X6383928Y-6903929D01*
X6369643Y-6875357D01*
X6369643Y-6618214D01*
X6755357Y-6918214D02*
X6755357Y-6618214D01*
X6855357Y-6832500D01*
X6955357Y-6618214D01*
X6955357Y-6918214D01*
X7226786Y-6918214D02*
X7226786Y-6761071D01*
X7212500Y-6732500D01*
X7183928Y-6718214D01*
X7126786Y-6718214D01*
X7098214Y-6732500D01*
X7226786Y-6903929D02*
X7198214Y-6918214D01*
X7126786Y-6918214D01*
X7098214Y-6903929D01*
X7083928Y-6875357D01*
X7083928Y-6846786D01*
X7098214Y-6818214D01*
X7126786Y-6803929D01*
X7198214Y-6803929D01*
X7226786Y-6789643D01*
X7369643Y-6718214D02*
X7369643Y-7018214D01*
X7369643Y-6732500D02*
X7398214Y-6718214D01*
X7455357Y-6718214D01*
X7483928Y-6732500D01*
X7498214Y-6746786D01*
X7512500Y-6775357D01*
X7512500Y-6861071D01*
X7498214Y-6889643D01*
X7483928Y-6903929D01*
X7455357Y-6918214D01*
X7398214Y-6918214D01*
X7369643Y-6903929D01*
X7641071Y-6889643D02*
X7655357Y-6903929D01*
X7641071Y-6918214D01*
X7626786Y-6903929D01*
X7641071Y-6889643D01*
X7641071Y-6918214D01*
X7641071Y-6732500D02*
X7655357Y-6746786D01*
X7641071Y-6761071D01*
X7626786Y-6746786D01*
X7641071Y-6732500D01*
X7641071Y-6761071D01*
X5257500Y-7392500D02*
X5297500Y-7432500D01*
X5297500Y-7392500D02*
X5257500Y-7432500D01*
X5641071Y-7248214D02*
X5669643Y-7248214D01*
X5698214Y-7262500D01*
X5712500Y-7276786D01*
X5726786Y-7305357D01*
X5741071Y-7362500D01*
X5741071Y-7433929D01*
X5726786Y-7491071D01*
X5712500Y-7519643D01*
X5698214Y-7533929D01*
X5669643Y-7548214D01*
X5641071Y-7548214D01*
X5612500Y-7533929D01*
X5598214Y-7519643D01*
X5583928Y-7491071D01*
X5569643Y-7433929D01*
X5569643Y-7362500D01*
X5583928Y-7305357D01*
X5598214Y-7276786D01*
X5612500Y-7262500D01*
X5641071Y-7248214D01*
X5869643Y-7519643D02*
X5883928Y-7533929D01*
X5869643Y-7548214D01*
X5855357Y-7533929D01*
X5869643Y-7519643D01*
X5869643Y-7548214D01*
X6141071Y-7348214D02*
X6141071Y-7548214D01*
X6069643Y-7233929D02*
X5998214Y-7448214D01*
X6183928Y-7448214D01*
X6355357Y-7248214D02*
X6383928Y-7248214D01*
X6412500Y-7262500D01*
X6426786Y-7276786D01*
X6441071Y-7305357D01*
X6455357Y-7362500D01*
X6455357Y-7433929D01*
X6441071Y-7491071D01*
X6426786Y-7519643D01*
X6412500Y-7533929D01*
X6383928Y-7548214D01*
X6355357Y-7548214D01*
X6326786Y-7533929D01*
X6312500Y-7519643D01*
X6298214Y-7491071D01*
X6283928Y-7433929D01*
X6283928Y-7362500D01*
X6298214Y-7305357D01*
X6312500Y-7276786D01*
X6326786Y-7262500D01*
X6355357Y-7248214D01*
X6641071Y-7248214D02*
X6669643Y-7248214D01*
X6698214Y-7262500D01*
X6712500Y-7276786D01*
X6726786Y-7305357D01*
X6741071Y-7362500D01*
X6741071Y-7433929D01*
X6726786Y-7491071D01*
X6712500Y-7519643D01*
X6698214Y-7533929D01*
X6669643Y-7548214D01*
X6641071Y-7548214D01*
X6612500Y-7533929D01*
X6598214Y-7519643D01*
X6583928Y-7491071D01*
X6569643Y-7433929D01*
X6569643Y-7362500D01*
X6583928Y-7305357D01*
X6598214Y-7276786D01*
X6612500Y-7262500D01*
X6641071Y-7248214D01*
X6869643Y-7548214D02*
X6869643Y-7348214D01*
X6869643Y-7376786D02*
X6883928Y-7362500D01*
X6912500Y-7348214D01*
X6955357Y-7348214D01*
X6983928Y-7362500D01*
X6998214Y-7391071D01*
X6998214Y-7548214D01*
X6998214Y-7391071D02*
X7012500Y-7362500D01*
X7041071Y-7348214D01*
X7083928Y-7348214D01*
X7112500Y-7362500D01*
X7126786Y-7391071D01*
X7126786Y-7548214D01*
X7269643Y-7548214D02*
X7269643Y-7348214D01*
X7269643Y-7376786D02*
X7283928Y-7362500D01*
X7312500Y-7348214D01*
X7355357Y-7348214D01*
X7383928Y-7362500D01*
X7398214Y-7391071D01*
X7398214Y-7548214D01*
X7398214Y-7391071D02*
X7412500Y-7362500D01*
X7441071Y-7348214D01*
X7483928Y-7348214D01*
X7512500Y-7362500D01*
X7526786Y-7391071D01*
X7526786Y-7548214D01*
X8112500Y-7233929D02*
X7855357Y-7619643D01*
X8498214Y-7248214D02*
X8526786Y-7248214D01*
X8555357Y-7262500D01*
X8569643Y-7276786D01*
X8583928Y-7305357D01*
X8598214Y-7362500D01*
X8598214Y-7433929D01*
X8583928Y-7491071D01*
X8569643Y-7519643D01*
X8555357Y-7533929D01*
X8526786Y-7548214D01*
X8498214Y-7548214D01*
X8469643Y-7533929D01*
X8455357Y-7519643D01*
X8441071Y-7491071D01*
X8426786Y-7433929D01*
X8426786Y-7362500D01*
X8441071Y-7305357D01*
X8455357Y-7276786D01*
X8469643Y-7262500D01*
X8498214Y-7248214D01*
X8726786Y-7519643D02*
X8741071Y-7533929D01*
X8726786Y-7548214D01*
X8712500Y-7533929D01*
X8726786Y-7519643D01*
X8726786Y-7548214D01*
X8926786Y-7248214D02*
X8955357Y-7248214D01*
X8983928Y-7262500D01*
X8998214Y-7276786D01*
X9012500Y-7305357D01*
X9026786Y-7362500D01*
X9026786Y-7433929D01*
X9012500Y-7491071D01*
X8998214Y-7519643D01*
X8983928Y-7533929D01*
X8955357Y-7548214D01*
X8926786Y-7548214D01*
X8898214Y-7533929D01*
X8883928Y-7519643D01*
X8869643Y-7491071D01*
X8855357Y-7433929D01*
X8855357Y-7362500D01*
X8869643Y-7305357D01*
X8883928Y-7276786D01*
X8898214Y-7262500D01*
X8926786Y-7248214D01*
X9312500Y-7548214D02*
X9141071Y-7548214D01*
X9226786Y-7548214D02*
X9226786Y-7248214D01*
X9198214Y-7291071D01*
X9169643Y-7319643D01*
X9141071Y-7333929D01*
X9583928Y-7248214D02*
X9441071Y-7248214D01*
X9426786Y-7391071D01*
X9441071Y-7376786D01*
X9469643Y-7362500D01*
X9541071Y-7362500D01*
X9569643Y-7376786D01*
X9583928Y-7391071D01*
X9598214Y-7419643D01*
X9598214Y-7491071D01*
X9583928Y-7519643D01*
X9569643Y-7533929D01*
X9541071Y-7548214D01*
X9469643Y-7548214D01*
X9441071Y-7533929D01*
X9426786Y-7519643D01*
X9698214Y-7248214D02*
X9898214Y-7248214D01*
X9769643Y-7548214D01*
X9998214Y-7248214D02*
X9998214Y-7305357D01*
X10112500Y-7248214D02*
X10112500Y-7305357D01*
X10555357Y-7662500D02*
X10541071Y-7648214D01*
X10512500Y-7605357D01*
X10498214Y-7576786D01*
X10483928Y-7533929D01*
X10469643Y-7462500D01*
X10469643Y-7405357D01*
X10483928Y-7333929D01*
X10498214Y-7291071D01*
X10512500Y-7262500D01*
X10541071Y-7219643D01*
X10555357Y-7205357D01*
X10655357Y-7276786D02*
X10669643Y-7262500D01*
X10698214Y-7248214D01*
X10769643Y-7248214D01*
X10798214Y-7262500D01*
X10812500Y-7276786D01*
X10826786Y-7305357D01*
X10826786Y-7333929D01*
X10812500Y-7376786D01*
X10641071Y-7548214D01*
X10826786Y-7548214D01*
X11012500Y-7248214D02*
X11041071Y-7248214D01*
X11069643Y-7262500D01*
X11083928Y-7276786D01*
X11098214Y-7305357D01*
X11112500Y-7362500D01*
X11112500Y-7433929D01*
X11098214Y-7491071D01*
X11083928Y-7519643D01*
X11069643Y-7533929D01*
X11041071Y-7548214D01*
X11012500Y-7548214D01*
X10983928Y-7533929D01*
X10969643Y-7519643D01*
X10955357Y-7491071D01*
X10941071Y-7433929D01*
X10941071Y-7362500D01*
X10955357Y-7305357D01*
X10969643Y-7276786D01*
X10983928Y-7262500D01*
X11012500Y-7248214D01*
X11469643Y-7548214D02*
X11469643Y-7248214D01*
X11598214Y-7548214D02*
X11598214Y-7391071D01*
X11583928Y-7362500D01*
X11555357Y-7348214D01*
X11512500Y-7348214D01*
X11483928Y-7362500D01*
X11469643Y-7376786D01*
X11783928Y-7548214D02*
X11755357Y-7533929D01*
X11741071Y-7519643D01*
X11726786Y-7491071D01*
X11726786Y-7405357D01*
X11741071Y-7376786D01*
X11755357Y-7362500D01*
X11783928Y-7348214D01*
X11826786Y-7348214D01*
X11855357Y-7362500D01*
X11869643Y-7376786D01*
X11883928Y-7405357D01*
X11883928Y-7491071D01*
X11869643Y-7519643D01*
X11855357Y-7533929D01*
X11826786Y-7548214D01*
X11783928Y-7548214D01*
X12055357Y-7548214D02*
X12026786Y-7533929D01*
X12012500Y-7505357D01*
X12012500Y-7248214D01*
X12283928Y-7533929D02*
X12255357Y-7548214D01*
X12198214Y-7548214D01*
X12169643Y-7533929D01*
X12155357Y-7505357D01*
X12155357Y-7391071D01*
X12169643Y-7362500D01*
X12198214Y-7348214D01*
X12255357Y-7348214D01*
X12283928Y-7362500D01*
X12298214Y-7391071D01*
X12298214Y-7419643D01*
X12155357Y-7448214D01*
X12412500Y-7533929D02*
X12441071Y-7548214D01*
X12498214Y-7548214D01*
X12526786Y-7533929D01*
X12541071Y-7505357D01*
X12541071Y-7491071D01*
X12526786Y-7462500D01*
X12498214Y-7448214D01*
X12455357Y-7448214D01*
X12426786Y-7433929D01*
X12412500Y-7405357D01*
X12412500Y-7391071D01*
X12426786Y-7362500D01*
X12455357Y-7348214D01*
X12498214Y-7348214D01*
X12526786Y-7362500D01*
X12641071Y-7662500D02*
X12655357Y-7648214D01*
X12683928Y-7605357D01*
X12698214Y-7576786D01*
X12712500Y-7533929D01*
X12726786Y-7462500D01*
X12726786Y-7405357D01*
X12712500Y-7333929D01*
X12698214Y-7291071D01*
X12683928Y-7262500D01*
X12655357Y-7219643D01*
X12641071Y-7205357D01*
X5297500Y-7808500D02*
G75*
G03*
X5297500Y-7808500I-40000J0D01*
G01*
X5641071Y-7644214D02*
X5669643Y-7644214D01*
X5698214Y-7658500D01*
X5712500Y-7672786D01*
X5726786Y-7701357D01*
X5741071Y-7758500D01*
X5741071Y-7829929D01*
X5726786Y-7887071D01*
X5712500Y-7915643D01*
X5698214Y-7929929D01*
X5669643Y-7944214D01*
X5641071Y-7944214D01*
X5612500Y-7929929D01*
X5598214Y-7915643D01*
X5583928Y-7887071D01*
X5569643Y-7829929D01*
X5569643Y-7758500D01*
X5583928Y-7701357D01*
X5598214Y-7672786D01*
X5612500Y-7658500D01*
X5641071Y-7644214D01*
X5869643Y-7915643D02*
X5883928Y-7929929D01*
X5869643Y-7944214D01*
X5855357Y-7929929D01*
X5869643Y-7915643D01*
X5869643Y-7944214D01*
X6055357Y-7772786D02*
X6026786Y-7758500D01*
X6012500Y-7744214D01*
X5998214Y-7715643D01*
X5998214Y-7701357D01*
X6012500Y-7672786D01*
X6026786Y-7658500D01*
X6055357Y-7644214D01*
X6112500Y-7644214D01*
X6141071Y-7658500D01*
X6155357Y-7672786D01*
X6169643Y-7701357D01*
X6169643Y-7715643D01*
X6155357Y-7744214D01*
X6141071Y-7758500D01*
X6112500Y-7772786D01*
X6055357Y-7772786D01*
X6026786Y-7787071D01*
X6012500Y-7801357D01*
X5998214Y-7829929D01*
X5998214Y-7887071D01*
X6012500Y-7915643D01*
X6026786Y-7929929D01*
X6055357Y-7944214D01*
X6112500Y-7944214D01*
X6141071Y-7929929D01*
X6155357Y-7915643D01*
X6169643Y-7887071D01*
X6169643Y-7829929D01*
X6155357Y-7801357D01*
X6141071Y-7787071D01*
X6112500Y-7772786D01*
X6355357Y-7644214D02*
X6383928Y-7644214D01*
X6412500Y-7658500D01*
X6426786Y-7672786D01*
X6441071Y-7701357D01*
X6455357Y-7758500D01*
X6455357Y-7829929D01*
X6441071Y-7887071D01*
X6426786Y-7915643D01*
X6412500Y-7929929D01*
X6383928Y-7944214D01*
X6355357Y-7944214D01*
X6326786Y-7929929D01*
X6312500Y-7915643D01*
X6298214Y-7887071D01*
X6283928Y-7829929D01*
X6283928Y-7758500D01*
X6298214Y-7701357D01*
X6312500Y-7672786D01*
X6326786Y-7658500D01*
X6355357Y-7644214D01*
X6641071Y-7644214D02*
X6669643Y-7644214D01*
X6698214Y-7658500D01*
X6712500Y-7672786D01*
X6726786Y-7701357D01*
X6741071Y-7758500D01*
X6741071Y-7829929D01*
X6726786Y-7887071D01*
X6712500Y-7915643D01*
X6698214Y-7929929D01*
X6669643Y-7944214D01*
X6641071Y-7944214D01*
X6612500Y-7929929D01*
X6598214Y-7915643D01*
X6583928Y-7887071D01*
X6569643Y-7829929D01*
X6569643Y-7758500D01*
X6583928Y-7701357D01*
X6598214Y-7672786D01*
X6612500Y-7658500D01*
X6641071Y-7644214D01*
X6869643Y-7944214D02*
X6869643Y-7744214D01*
X6869643Y-7772786D02*
X6883928Y-7758500D01*
X6912500Y-7744214D01*
X6955357Y-7744214D01*
X6983928Y-7758500D01*
X6998214Y-7787071D01*
X6998214Y-7944214D01*
X6998214Y-7787071D02*
X7012500Y-7758500D01*
X7041071Y-7744214D01*
X7083928Y-7744214D01*
X7112500Y-7758500D01*
X7126786Y-7787071D01*
X7126786Y-7944214D01*
X7269643Y-7944214D02*
X7269643Y-7744214D01*
X7269643Y-7772786D02*
X7283928Y-7758500D01*
X7312500Y-7744214D01*
X7355357Y-7744214D01*
X7383928Y-7758500D01*
X7398214Y-7787071D01*
X7398214Y-7944214D01*
X7398214Y-7787071D02*
X7412500Y-7758500D01*
X7441071Y-7744214D01*
X7483928Y-7744214D01*
X7512500Y-7758500D01*
X7526786Y-7787071D01*
X7526786Y-7944214D01*
X8112500Y-7629929D02*
X7855357Y-8015643D01*
X8498214Y-7644214D02*
X8526786Y-7644214D01*
X8555357Y-7658500D01*
X8569643Y-7672786D01*
X8583928Y-7701357D01*
X8598214Y-7758500D01*
X8598214Y-7829929D01*
X8583928Y-7887071D01*
X8569643Y-7915643D01*
X8555357Y-7929929D01*
X8526786Y-7944214D01*
X8498214Y-7944214D01*
X8469643Y-7929929D01*
X8455357Y-7915643D01*
X8441071Y-7887071D01*
X8426786Y-7829929D01*
X8426786Y-7758500D01*
X8441071Y-7701357D01*
X8455357Y-7672786D01*
X8469643Y-7658500D01*
X8498214Y-7644214D01*
X8726786Y-7915643D02*
X8741071Y-7929929D01*
X8726786Y-7944214D01*
X8712500Y-7929929D01*
X8726786Y-7915643D01*
X8726786Y-7944214D01*
X8926786Y-7644214D02*
X8955357Y-7644214D01*
X8983928Y-7658500D01*
X8998214Y-7672786D01*
X9012500Y-7701357D01*
X9026786Y-7758500D01*
X9026786Y-7829929D01*
X9012500Y-7887071D01*
X8998214Y-7915643D01*
X8983928Y-7929929D01*
X8955357Y-7944214D01*
X8926786Y-7944214D01*
X8898214Y-7929929D01*
X8883928Y-7915643D01*
X8869643Y-7887071D01*
X8855357Y-7829929D01*
X8855357Y-7758500D01*
X8869643Y-7701357D01*
X8883928Y-7672786D01*
X8898214Y-7658500D01*
X8926786Y-7644214D01*
X9126786Y-7644214D02*
X9312500Y-7644214D01*
X9212500Y-7758500D01*
X9255357Y-7758500D01*
X9283928Y-7772786D01*
X9298214Y-7787071D01*
X9312500Y-7815643D01*
X9312500Y-7887071D01*
X9298214Y-7915643D01*
X9283928Y-7929929D01*
X9255357Y-7944214D01*
X9169643Y-7944214D01*
X9141071Y-7929929D01*
X9126786Y-7915643D01*
X9598214Y-7944214D02*
X9426786Y-7944214D01*
X9512500Y-7944214D02*
X9512500Y-7644214D01*
X9483928Y-7687071D01*
X9455357Y-7715643D01*
X9426786Y-7729929D01*
X9869643Y-7644214D02*
X9726786Y-7644214D01*
X9712500Y-7787071D01*
X9726786Y-7772786D01*
X9755357Y-7758500D01*
X9826786Y-7758500D01*
X9855357Y-7772786D01*
X9869643Y-7787071D01*
X9883928Y-7815643D01*
X9883928Y-7887071D01*
X9869643Y-7915643D01*
X9855357Y-7929929D01*
X9826786Y-7944214D01*
X9755357Y-7944214D01*
X9726786Y-7929929D01*
X9712500Y-7915643D01*
X9998214Y-7644214D02*
X9998214Y-7701357D01*
X10112500Y-7644214D02*
X10112500Y-7701357D01*
X10555357Y-8058500D02*
X10541071Y-8044214D01*
X10512500Y-8001357D01*
X10498214Y-7972786D01*
X10483928Y-7929929D01*
X10469643Y-7858500D01*
X10469643Y-7801357D01*
X10483928Y-7729929D01*
X10498214Y-7687071D01*
X10512500Y-7658500D01*
X10541071Y-7615643D01*
X10555357Y-7601357D01*
X10641071Y-7644214D02*
X10826786Y-7644214D01*
X10726786Y-7758500D01*
X10769643Y-7758500D01*
X10798214Y-7772786D01*
X10812500Y-7787071D01*
X10826786Y-7815643D01*
X10826786Y-7887071D01*
X10812500Y-7915643D01*
X10798214Y-7929929D01*
X10769643Y-7944214D01*
X10683928Y-7944214D01*
X10655357Y-7929929D01*
X10641071Y-7915643D01*
X11183928Y-7944214D02*
X11183928Y-7644214D01*
X11312500Y-7944214D02*
X11312500Y-7787071D01*
X11298214Y-7758500D01*
X11269643Y-7744214D01*
X11226786Y-7744214D01*
X11198214Y-7758500D01*
X11183928Y-7772786D01*
X11498214Y-7944214D02*
X11469643Y-7929929D01*
X11455357Y-7915643D01*
X11441071Y-7887071D01*
X11441071Y-7801357D01*
X11455357Y-7772786D01*
X11469643Y-7758500D01*
X11498214Y-7744214D01*
X11541071Y-7744214D01*
X11569643Y-7758500D01*
X11583928Y-7772786D01*
X11598214Y-7801357D01*
X11598214Y-7887071D01*
X11583928Y-7915643D01*
X11569643Y-7929929D01*
X11541071Y-7944214D01*
X11498214Y-7944214D01*
X11769643Y-7944214D02*
X11741071Y-7929929D01*
X11726786Y-7901357D01*
X11726786Y-7644214D01*
X11998214Y-7929929D02*
X11969643Y-7944214D01*
X11912500Y-7944214D01*
X11883928Y-7929929D01*
X11869643Y-7901357D01*
X11869643Y-7787071D01*
X11883928Y-7758500D01*
X11912500Y-7744214D01*
X11969643Y-7744214D01*
X11998214Y-7758500D01*
X12012500Y-7787071D01*
X12012500Y-7815643D01*
X11869643Y-7844214D01*
X12126786Y-7929929D02*
X12155357Y-7944214D01*
X12212500Y-7944214D01*
X12241071Y-7929929D01*
X12255357Y-7901357D01*
X12255357Y-7887071D01*
X12241071Y-7858500D01*
X12212500Y-7844214D01*
X12169643Y-7844214D01*
X12141071Y-7829929D01*
X12126786Y-7801357D01*
X12126786Y-7787071D01*
X12141071Y-7758500D01*
X12169643Y-7744214D01*
X12212500Y-7744214D01*
X12241071Y-7758500D01*
X12355357Y-8058500D02*
X12369643Y-8044214D01*
X12398214Y-8001357D01*
X12412500Y-7972786D01*
X12426786Y-7929929D01*
X12441071Y-7858500D01*
X12441071Y-7801357D01*
X12426786Y-7729929D01*
X12412500Y-7687071D01*
X12398214Y-7658500D01*
X12369643Y-7615643D01*
X12355357Y-7601357D01*
X5247500Y-8154500D02*
X5247500Y-8254500D01*
X5197500Y-8204500D02*
X5297500Y-8204500D01*
X5741071Y-8340214D02*
X5569643Y-8340214D01*
X5655357Y-8340214D02*
X5655357Y-8040214D01*
X5626786Y-8083071D01*
X5598214Y-8111643D01*
X5569643Y-8125929D01*
X5869643Y-8311643D02*
X5883928Y-8325929D01*
X5869643Y-8340214D01*
X5855357Y-8325929D01*
X5869643Y-8311643D01*
X5869643Y-8340214D01*
X6069643Y-8040214D02*
X6098214Y-8040214D01*
X6126786Y-8054500D01*
X6141071Y-8068786D01*
X6155357Y-8097357D01*
X6169643Y-8154500D01*
X6169643Y-8225929D01*
X6155357Y-8283071D01*
X6141071Y-8311643D01*
X6126786Y-8325929D01*
X6098214Y-8340214D01*
X6069643Y-8340214D01*
X6041071Y-8325929D01*
X6026786Y-8311643D01*
X6012500Y-8283071D01*
X5998214Y-8225929D01*
X5998214Y-8154500D01*
X6012500Y-8097357D01*
X6026786Y-8068786D01*
X6041071Y-8054500D01*
X6069643Y-8040214D01*
X6355357Y-8040214D02*
X6383928Y-8040214D01*
X6412500Y-8054500D01*
X6426786Y-8068786D01*
X6441071Y-8097357D01*
X6455357Y-8154500D01*
X6455357Y-8225929D01*
X6441071Y-8283071D01*
X6426786Y-8311643D01*
X6412500Y-8325929D01*
X6383928Y-8340214D01*
X6355357Y-8340214D01*
X6326786Y-8325929D01*
X6312500Y-8311643D01*
X6298214Y-8283071D01*
X6283928Y-8225929D01*
X6283928Y-8154500D01*
X6298214Y-8097357D01*
X6312500Y-8068786D01*
X6326786Y-8054500D01*
X6355357Y-8040214D01*
X6641071Y-8040214D02*
X6669643Y-8040214D01*
X6698214Y-8054500D01*
X6712500Y-8068786D01*
X6726786Y-8097357D01*
X6741071Y-8154500D01*
X6741071Y-8225929D01*
X6726786Y-8283071D01*
X6712500Y-8311643D01*
X6698214Y-8325929D01*
X6669643Y-8340214D01*
X6641071Y-8340214D01*
X6612500Y-8325929D01*
X6598214Y-8311643D01*
X6583928Y-8283071D01*
X6569643Y-8225929D01*
X6569643Y-8154500D01*
X6583928Y-8097357D01*
X6598214Y-8068786D01*
X6612500Y-8054500D01*
X6641071Y-8040214D01*
X6869643Y-8340214D02*
X6869643Y-8140214D01*
X6869643Y-8168786D02*
X6883928Y-8154500D01*
X6912500Y-8140214D01*
X6955357Y-8140214D01*
X6983928Y-8154500D01*
X6998214Y-8183071D01*
X6998214Y-8340214D01*
X6998214Y-8183071D02*
X7012500Y-8154500D01*
X7041071Y-8140214D01*
X7083928Y-8140214D01*
X7112500Y-8154500D01*
X7126786Y-8183071D01*
X7126786Y-8340214D01*
X7269643Y-8340214D02*
X7269643Y-8140214D01*
X7269643Y-8168786D02*
X7283928Y-8154500D01*
X7312500Y-8140214D01*
X7355357Y-8140214D01*
X7383928Y-8154500D01*
X7398214Y-8183071D01*
X7398214Y-8340214D01*
X7398214Y-8183071D02*
X7412500Y-8154500D01*
X7441071Y-8140214D01*
X7483928Y-8140214D01*
X7512500Y-8154500D01*
X7526786Y-8183071D01*
X7526786Y-8340214D01*
X8112500Y-8025929D02*
X7855357Y-8411643D01*
X8498214Y-8040214D02*
X8526786Y-8040214D01*
X8555357Y-8054500D01*
X8569643Y-8068786D01*
X8583928Y-8097357D01*
X8598214Y-8154500D01*
X8598214Y-8225929D01*
X8583928Y-8283071D01*
X8569643Y-8311643D01*
X8555357Y-8325929D01*
X8526786Y-8340214D01*
X8498214Y-8340214D01*
X8469643Y-8325929D01*
X8455357Y-8311643D01*
X8441071Y-8283071D01*
X8426786Y-8225929D01*
X8426786Y-8154500D01*
X8441071Y-8097357D01*
X8455357Y-8068786D01*
X8469643Y-8054500D01*
X8498214Y-8040214D01*
X8726786Y-8311643D02*
X8741071Y-8325929D01*
X8726786Y-8340214D01*
X8712500Y-8325929D01*
X8726786Y-8311643D01*
X8726786Y-8340214D01*
X8926786Y-8040214D02*
X8955357Y-8040214D01*
X8983928Y-8054500D01*
X8998214Y-8068786D01*
X9012500Y-8097357D01*
X9026786Y-8154500D01*
X9026786Y-8225929D01*
X9012500Y-8283071D01*
X8998214Y-8311643D01*
X8983928Y-8325929D01*
X8955357Y-8340214D01*
X8926786Y-8340214D01*
X8898214Y-8325929D01*
X8883928Y-8311643D01*
X8869643Y-8283071D01*
X8855357Y-8225929D01*
X8855357Y-8154500D01*
X8869643Y-8097357D01*
X8883928Y-8068786D01*
X8898214Y-8054500D01*
X8926786Y-8040214D01*
X9126786Y-8040214D02*
X9312500Y-8040214D01*
X9212500Y-8154500D01*
X9255357Y-8154500D01*
X9283928Y-8168786D01*
X9298214Y-8183071D01*
X9312500Y-8211643D01*
X9312500Y-8283071D01*
X9298214Y-8311643D01*
X9283928Y-8325929D01*
X9255357Y-8340214D01*
X9169643Y-8340214D01*
X9141071Y-8325929D01*
X9126786Y-8311643D01*
X9455357Y-8340214D02*
X9512500Y-8340214D01*
X9541071Y-8325929D01*
X9555357Y-8311643D01*
X9583928Y-8268786D01*
X9598214Y-8211643D01*
X9598214Y-8097357D01*
X9583928Y-8068786D01*
X9569643Y-8054500D01*
X9541071Y-8040214D01*
X9483928Y-8040214D01*
X9455357Y-8054500D01*
X9441071Y-8068786D01*
X9426786Y-8097357D01*
X9426786Y-8168786D01*
X9441071Y-8197357D01*
X9455357Y-8211643D01*
X9483928Y-8225929D01*
X9541071Y-8225929D01*
X9569643Y-8211643D01*
X9583928Y-8197357D01*
X9598214Y-8168786D01*
X9855357Y-8140214D02*
X9855357Y-8340214D01*
X9783928Y-8025929D02*
X9712500Y-8240214D01*
X9898214Y-8240214D01*
X9998214Y-8040214D02*
X9998214Y-8097357D01*
X10112500Y-8040214D02*
X10112500Y-8097357D01*
X10555357Y-8454500D02*
X10541071Y-8440214D01*
X10512500Y-8397357D01*
X10498214Y-8368786D01*
X10483928Y-8325929D01*
X10469643Y-8254500D01*
X10469643Y-8197357D01*
X10483928Y-8125929D01*
X10498214Y-8083071D01*
X10512500Y-8054500D01*
X10541071Y-8011643D01*
X10555357Y-7997357D01*
X10798214Y-8140214D02*
X10798214Y-8340214D01*
X10726786Y-8025929D02*
X10655357Y-8240214D01*
X10841071Y-8240214D01*
X11012500Y-8040214D02*
X11041071Y-8040214D01*
X11069643Y-8054500D01*
X11083928Y-8068786D01*
X11098214Y-8097357D01*
X11112500Y-8154500D01*
X11112500Y-8225929D01*
X11098214Y-8283071D01*
X11083928Y-8311643D01*
X11069643Y-8325929D01*
X11041071Y-8340214D01*
X11012500Y-8340214D01*
X10983928Y-8325929D01*
X10969643Y-8311643D01*
X10955357Y-8283071D01*
X10941071Y-8225929D01*
X10941071Y-8154500D01*
X10955357Y-8097357D01*
X10969643Y-8068786D01*
X10983928Y-8054500D01*
X11012500Y-8040214D01*
X11469643Y-8340214D02*
X11469643Y-8040214D01*
X11598214Y-8340214D02*
X11598214Y-8183071D01*
X11583928Y-8154500D01*
X11555357Y-8140214D01*
X11512500Y-8140214D01*
X11483928Y-8154500D01*
X11469643Y-8168786D01*
X11783928Y-8340214D02*
X11755357Y-8325929D01*
X11741071Y-8311643D01*
X11726786Y-8283071D01*
X11726786Y-8197357D01*
X11741071Y-8168786D01*
X11755357Y-8154500D01*
X11783928Y-8140214D01*
X11826786Y-8140214D01*
X11855357Y-8154500D01*
X11869643Y-8168786D01*
X11883928Y-8197357D01*
X11883928Y-8283071D01*
X11869643Y-8311643D01*
X11855357Y-8325929D01*
X11826786Y-8340214D01*
X11783928Y-8340214D01*
X12055357Y-8340214D02*
X12026786Y-8325929D01*
X12012500Y-8297357D01*
X12012500Y-8040214D01*
X12283928Y-8325929D02*
X12255357Y-8340214D01*
X12198214Y-8340214D01*
X12169643Y-8325929D01*
X12155357Y-8297357D01*
X12155357Y-8183071D01*
X12169643Y-8154500D01*
X12198214Y-8140214D01*
X12255357Y-8140214D01*
X12283928Y-8154500D01*
X12298214Y-8183071D01*
X12298214Y-8211643D01*
X12155357Y-8240214D01*
X12412500Y-8325929D02*
X12441071Y-8340214D01*
X12498214Y-8340214D01*
X12526786Y-8325929D01*
X12541071Y-8297357D01*
X12541071Y-8283071D01*
X12526786Y-8254500D01*
X12498214Y-8240214D01*
X12455357Y-8240214D01*
X12426786Y-8225929D01*
X12412500Y-8197357D01*
X12412500Y-8183071D01*
X12426786Y-8154500D01*
X12455357Y-8140214D01*
X12498214Y-8140214D01*
X12526786Y-8154500D01*
X12641071Y-8454500D02*
X12655357Y-8440214D01*
X12683928Y-8397357D01*
X12698214Y-8368786D01*
X12712500Y-8325929D01*
X12726786Y-8254500D01*
X12726786Y-8197357D01*
X12712500Y-8125929D01*
X12698214Y-8083071D01*
X12683928Y-8054500D01*
X12655357Y-8011643D01*
X12641071Y-7997357D01*
M02*
