G04 #@! TF.GenerationSoftware,KiCad,Pcbnew,(5.1.10-1-10_14)*
G04 #@! TF.CreationDate,2022-02-17T23:12:15-06:00*
G04 #@! TF.ProjectId,OpenEstim++,4f70656e-4573-4746-996d-2b2b2e6b6963,rev?*
G04 #@! TF.SameCoordinates,Original*
G04 #@! TF.FileFunction,Copper,L2,Bot*
G04 #@! TF.FilePolarity,Positive*
%FSLAX46Y46*%
G04 Gerber Fmt 4.6, Leading zero omitted, Abs format (unit mm)*
G04 Created by KiCad (PCBNEW (5.1.10-1-10_14)) date 2022-02-17 23:12:15*
%MOMM*%
%LPD*%
G01*
G04 APERTURE LIST*
G04 #@! TA.AperFunction,ComponentPad*
%ADD10C,1.800000*%
G04 #@! TD*
G04 #@! TA.AperFunction,ComponentPad*
%ADD11R,1.350000X1.350000*%
G04 #@! TD*
G04 #@! TA.AperFunction,ComponentPad*
%ADD12O,1.350000X1.350000*%
G04 #@! TD*
G04 #@! TA.AperFunction,SMDPad,CuDef*
%ADD13R,1.500000X1.300000*%
G04 #@! TD*
G04 #@! TA.AperFunction,ComponentPad*
%ADD14R,1.700000X1.700000*%
G04 #@! TD*
G04 #@! TA.AperFunction,ComponentPad*
%ADD15O,1.700000X1.700000*%
G04 #@! TD*
G04 #@! TA.AperFunction,ComponentPad*
%ADD16C,1.700000*%
G04 #@! TD*
G04 #@! TA.AperFunction,ViaPad*
%ADD17C,0.800000*%
G04 #@! TD*
G04 #@! TA.AperFunction,Conductor*
%ADD18C,0.250000*%
G04 #@! TD*
G04 #@! TA.AperFunction,Conductor*
%ADD19C,0.500000*%
G04 #@! TD*
G04 #@! TA.AperFunction,Conductor*
%ADD20C,0.254000*%
G04 #@! TD*
G04 #@! TA.AperFunction,Conductor*
%ADD21C,0.100000*%
G04 #@! TD*
G04 APERTURE END LIST*
D10*
X55650000Y-46470000D03*
X71650000Y-46470000D03*
X55650000Y-43930000D03*
X71650000Y-43930000D03*
X55650000Y-41390000D03*
X71650000Y-41390000D03*
X55650000Y-38850000D03*
X71650000Y-38850000D03*
X55650000Y-36310000D03*
X71650000Y-36310000D03*
X55650000Y-33770000D03*
X71650000Y-33770000D03*
X55650000Y-31230000D03*
X71650000Y-31230000D03*
D11*
X55600000Y-60750000D03*
D12*
X55600000Y-58750000D03*
X55600000Y-56750000D03*
D13*
X87000000Y-54150000D03*
X89700000Y-54150000D03*
X87000000Y-51550000D03*
X89700000Y-51550000D03*
X87000000Y-49050000D03*
X89700000Y-49050000D03*
X87000000Y-46450000D03*
X89700000Y-46450000D03*
X87050000Y-43950000D03*
X89750000Y-43950000D03*
X87000000Y-41450000D03*
X89700000Y-41450000D03*
X86950000Y-38850000D03*
X89650000Y-38850000D03*
X86950000Y-36350000D03*
X89650000Y-36350000D03*
X86900000Y-33850000D03*
X89600000Y-33850000D03*
X86900000Y-31250000D03*
X89600000Y-31250000D03*
D14*
X76850000Y-31200000D03*
D15*
X79390000Y-31200000D03*
X81930000Y-31200000D03*
X84470000Y-31200000D03*
D14*
X92650000Y-31250000D03*
D15*
X92650000Y-33790000D03*
X92650000Y-36330000D03*
X92650000Y-38870000D03*
X92650000Y-41410000D03*
X92650000Y-43950000D03*
X92650000Y-46490000D03*
X92650000Y-49030000D03*
X92650000Y-51570000D03*
X92650000Y-54110000D03*
X92650000Y-56650000D03*
X92650000Y-59190000D03*
X62100000Y-62550000D03*
D14*
X59560000Y-62550000D03*
X74200000Y-49550000D03*
D15*
X71660000Y-49550000D03*
D16*
X84490000Y-57750000D03*
X81950000Y-57750000D03*
X79410000Y-57750000D03*
X76870000Y-57750000D03*
X69250000Y-57750000D03*
X66710000Y-57750000D03*
D17*
X75925000Y-52300000D03*
X77075000Y-52950000D03*
X78225000Y-53750000D03*
X61475000Y-40075000D03*
X76450153Y-40125153D03*
X79250000Y-54600000D03*
X60050000Y-38900000D03*
X76550000Y-45800000D03*
X81400000Y-52300000D03*
X81850000Y-47000000D03*
X81850000Y-44350000D03*
X78900000Y-40800000D03*
X55100000Y-49200000D03*
X82875000Y-51775000D03*
X60050000Y-34200000D03*
X64450000Y-38750000D03*
X64375000Y-41475000D03*
X64725000Y-46325000D03*
X83000000Y-45800000D03*
X78050000Y-42800000D03*
D18*
X55650000Y-38850000D02*
X58325020Y-41525020D01*
X58325020Y-41525020D02*
X58325020Y-51527200D01*
X58325020Y-51527200D02*
X59647800Y-52849980D01*
X75375020Y-52849980D02*
X75925000Y-52300000D01*
X59647800Y-52849980D02*
X75375020Y-52849980D01*
X55650000Y-41390000D02*
X57875010Y-43615010D01*
X57875010Y-43615010D02*
X57875010Y-51713600D01*
X57875010Y-51713600D02*
X58755705Y-52594295D01*
X58755705Y-52594295D02*
X59461400Y-53299990D01*
X76725010Y-53299990D02*
X77075000Y-52950000D01*
X59461400Y-53299990D02*
X76725010Y-53299990D01*
X55650000Y-43930000D02*
X57425000Y-45705000D01*
X57425000Y-45705000D02*
X57425000Y-51900000D01*
X57425000Y-51900000D02*
X59275000Y-53750000D01*
X59275000Y-53750000D02*
X78225000Y-53750000D01*
X76450153Y-40125153D02*
X68825153Y-40125153D01*
X68825153Y-40125153D02*
X68825000Y-40125000D01*
X61525000Y-40125000D02*
X61475000Y-40075000D01*
X68825000Y-40125000D02*
X61525000Y-40125000D01*
X71600000Y-46520000D02*
X71650000Y-46470000D01*
X71650000Y-43930000D02*
X69775000Y-45805000D01*
X69775000Y-45805000D02*
X69775000Y-50525000D01*
X69775000Y-50525000D02*
X70600000Y-51350000D01*
X70600000Y-51350000D02*
X70825000Y-51575000D01*
X79250000Y-53701998D02*
X79250000Y-54600000D01*
X77123002Y-51575000D02*
X79250000Y-53701998D01*
X70825000Y-51575000D02*
X77123002Y-51575000D01*
D19*
X71680000Y-31200000D02*
X71650000Y-31230000D01*
X76850000Y-31200000D02*
X71680000Y-31200000D01*
X76850000Y-33650000D02*
X76850000Y-31200000D01*
X81250000Y-38050000D02*
X76850000Y-33650000D01*
X81250000Y-42950000D02*
X81250000Y-38050000D01*
X79325000Y-44875000D02*
X81250000Y-42950000D01*
X79325000Y-47325000D02*
X79325000Y-44875000D01*
X82875000Y-50875000D02*
X79325000Y-47325000D01*
X82875000Y-51775000D02*
X82875000Y-50875000D01*
D18*
X64450000Y-38750000D02*
X63250000Y-38750000D01*
X63250000Y-38750000D02*
X62050000Y-37550000D01*
X62050000Y-36200000D02*
X60050000Y-34200000D01*
X62050000Y-37550000D02*
X62050000Y-36200000D01*
X64375000Y-45975000D02*
X64725000Y-46325000D01*
X64375000Y-41475000D02*
X64375000Y-45975000D01*
X89600000Y-31250000D02*
X92650000Y-31250000D01*
D19*
X87000000Y-42700000D02*
X87000000Y-43900000D01*
X87000000Y-42700000D02*
X86100000Y-42700000D01*
X87000000Y-41450000D02*
X87000000Y-42700000D01*
X86100000Y-42700000D02*
X83000000Y-45800000D01*
X87000000Y-43900000D02*
X87050000Y-43950000D01*
X87000000Y-51550000D02*
X87000000Y-54150000D01*
X87000000Y-49050000D02*
X87000000Y-51550000D01*
X87000000Y-46450000D02*
X87000000Y-49050000D01*
X87050000Y-43950000D02*
X87050000Y-46400000D01*
D18*
X87050000Y-46400000D02*
X87000000Y-46450000D01*
D19*
X86950000Y-38850000D02*
X86950000Y-41400000D01*
D18*
X86950000Y-41400000D02*
X87000000Y-41450000D01*
D19*
X86950000Y-36350000D02*
X86950000Y-38850000D01*
X86900000Y-33850000D02*
X86900000Y-36300000D01*
D18*
X86900000Y-36300000D02*
X86950000Y-36350000D01*
D19*
X86900000Y-31250000D02*
X86900000Y-33850000D01*
X78050000Y-42800000D02*
X76000000Y-42800000D01*
X74200000Y-44600000D02*
X74200000Y-49550000D01*
X76000000Y-42800000D02*
X74200000Y-44600000D01*
D18*
X89700000Y-54150000D02*
X92610000Y-54150000D01*
X92610000Y-54150000D02*
X92650000Y-54110000D01*
X89700000Y-51550000D02*
X92630000Y-51550000D01*
X92630000Y-51550000D02*
X92650000Y-51570000D01*
X89700000Y-49050000D02*
X92630000Y-49050000D01*
X92630000Y-49050000D02*
X92650000Y-49030000D01*
X89700000Y-46450000D02*
X92610000Y-46450000D01*
X92610000Y-46450000D02*
X92650000Y-46490000D01*
X89750000Y-43950000D02*
X92650000Y-43950000D01*
X89700000Y-41450000D02*
X92610000Y-41450000D01*
X92610000Y-41450000D02*
X92650000Y-41410000D01*
X89650000Y-38850000D02*
X92630000Y-38850000D01*
X92630000Y-38850000D02*
X92650000Y-38870000D01*
X89650000Y-36350000D02*
X92630000Y-36350000D01*
X92630000Y-36350000D02*
X92650000Y-36330000D01*
X89600000Y-33850000D02*
X92590000Y-33850000D01*
X92590000Y-33850000D02*
X92650000Y-33790000D01*
D20*
X54879327Y-29788172D02*
X54612848Y-29966227D01*
X54386227Y-30192848D01*
X54208172Y-30459327D01*
X54085525Y-30755422D01*
X54023000Y-31069755D01*
X54023000Y-31390245D01*
X54085525Y-31704578D01*
X54208172Y-32000673D01*
X54386227Y-32267152D01*
X54612848Y-32493773D01*
X54622167Y-32500000D01*
X54612848Y-32506227D01*
X54386227Y-32732848D01*
X54208172Y-32999327D01*
X54085525Y-33295422D01*
X54023000Y-33609755D01*
X54023000Y-33930245D01*
X54085525Y-34244578D01*
X54208172Y-34540673D01*
X54386227Y-34807152D01*
X54612848Y-35033773D01*
X54622167Y-35040000D01*
X54612848Y-35046227D01*
X54386227Y-35272848D01*
X54208172Y-35539327D01*
X54085525Y-35835422D01*
X54023000Y-36149755D01*
X54023000Y-36470245D01*
X54085525Y-36784578D01*
X54208172Y-37080673D01*
X54386227Y-37347152D01*
X54612848Y-37573773D01*
X54622167Y-37580000D01*
X54612848Y-37586227D01*
X54386227Y-37812848D01*
X54208172Y-38079327D01*
X54085525Y-38375422D01*
X54023000Y-38689755D01*
X54023000Y-39010245D01*
X54085525Y-39324578D01*
X54208172Y-39620673D01*
X54386227Y-39887152D01*
X54612848Y-40113773D01*
X54622167Y-40120000D01*
X54612848Y-40126227D01*
X54386227Y-40352848D01*
X54208172Y-40619327D01*
X54085525Y-40915422D01*
X54023000Y-41229755D01*
X54023000Y-41550245D01*
X54085525Y-41864578D01*
X54208172Y-42160673D01*
X54386227Y-42427152D01*
X54612848Y-42653773D01*
X54622167Y-42660000D01*
X54612848Y-42666227D01*
X54386227Y-42892848D01*
X54208172Y-43159327D01*
X54085525Y-43455422D01*
X54023000Y-43769755D01*
X54023000Y-44090245D01*
X54085525Y-44404578D01*
X54208172Y-44700673D01*
X54386227Y-44967152D01*
X54612848Y-45193773D01*
X54622167Y-45200000D01*
X54612848Y-45206227D01*
X54386227Y-45432848D01*
X54208172Y-45699327D01*
X54085525Y-45995422D01*
X54023000Y-46309755D01*
X54023000Y-46630245D01*
X54085525Y-46944578D01*
X54208172Y-47240673D01*
X54386227Y-47507152D01*
X54612848Y-47733773D01*
X54879327Y-47911828D01*
X55175422Y-48034475D01*
X55489755Y-48097000D01*
X55810245Y-48097000D01*
X56124578Y-48034475D01*
X56420673Y-47911828D01*
X56573000Y-47810046D01*
X56573001Y-51858141D01*
X56568878Y-51900000D01*
X56577637Y-51988926D01*
X56585329Y-52067021D01*
X56596466Y-52103734D01*
X56634046Y-52227623D01*
X56713161Y-52375636D01*
X56772541Y-52447990D01*
X56819631Y-52505370D01*
X56852141Y-52532050D01*
X58642950Y-54322860D01*
X58669630Y-54355370D01*
X58702138Y-54382048D01*
X58799363Y-54461839D01*
X58918821Y-54525691D01*
X58947376Y-54540954D01*
X59107979Y-54589672D01*
X59233148Y-54602000D01*
X59233150Y-54602000D01*
X59274999Y-54606122D01*
X59316848Y-54602000D01*
X77483181Y-54602000D01*
X77506579Y-54625398D01*
X77691165Y-54748734D01*
X77896266Y-54833690D01*
X78114000Y-54877000D01*
X78156019Y-54877000D01*
X78166310Y-54928734D01*
X78251266Y-55133835D01*
X78374602Y-55318421D01*
X78531579Y-55475398D01*
X78716165Y-55598734D01*
X78921266Y-55683690D01*
X79139000Y-55727000D01*
X79361000Y-55727000D01*
X79578734Y-55683690D01*
X79783835Y-55598734D01*
X79968421Y-55475398D01*
X80125398Y-55318421D01*
X80248734Y-55133835D01*
X80333690Y-54928734D01*
X80377000Y-54711000D01*
X80377000Y-54489000D01*
X80333690Y-54271266D01*
X80248734Y-54066165D01*
X80125398Y-53881579D01*
X80102000Y-53858181D01*
X80102000Y-53743846D01*
X80106122Y-53701997D01*
X80100108Y-53640934D01*
X80089672Y-53534977D01*
X80040954Y-53374374D01*
X79989833Y-53278734D01*
X79961839Y-53226361D01*
X79882048Y-53129136D01*
X79855370Y-53096628D01*
X79822861Y-53069949D01*
X77755057Y-51002146D01*
X77728372Y-50969630D01*
X77598638Y-50863161D01*
X77450626Y-50784046D01*
X77290023Y-50735328D01*
X77164854Y-50723000D01*
X77164851Y-50723000D01*
X77123002Y-50718878D01*
X77081153Y-50723000D01*
X75701689Y-50723000D01*
X75724910Y-50679557D01*
X75766480Y-50542517D01*
X75780517Y-50400000D01*
X75780517Y-48700000D01*
X75766480Y-48557483D01*
X75724910Y-48420443D01*
X75657403Y-48294147D01*
X75566554Y-48183446D01*
X75455853Y-48092597D01*
X75329557Y-48025090D01*
X75192517Y-47983520D01*
X75177000Y-47981992D01*
X75177000Y-45004686D01*
X76404687Y-43777000D01*
X77483638Y-43777000D01*
X77516165Y-43798734D01*
X77721266Y-43883690D01*
X77939000Y-43927000D01*
X78161000Y-43927000D01*
X78378734Y-43883690D01*
X78583835Y-43798734D01*
X78768421Y-43675398D01*
X78925398Y-43518421D01*
X79048734Y-43333835D01*
X79133690Y-43128734D01*
X79177000Y-42911000D01*
X79177000Y-42689000D01*
X79133690Y-42471266D01*
X79048734Y-42266165D01*
X78925398Y-42081579D01*
X78768421Y-41924602D01*
X78583835Y-41801266D01*
X78378734Y-41716310D01*
X78161000Y-41673000D01*
X77939000Y-41673000D01*
X77721266Y-41716310D01*
X77516165Y-41801266D01*
X77483638Y-41823000D01*
X76047982Y-41823000D01*
X75999999Y-41818274D01*
X75952016Y-41823000D01*
X75952007Y-41823000D01*
X75808475Y-41837137D01*
X75624309Y-41893003D01*
X75454582Y-41983724D01*
X75305814Y-42105814D01*
X75275220Y-42143093D01*
X73543098Y-43875216D01*
X73505814Y-43905814D01*
X73383724Y-44054582D01*
X73316252Y-44180814D01*
X73293003Y-44224310D01*
X73237137Y-44408475D01*
X73218273Y-44600000D01*
X73223000Y-44647993D01*
X73223000Y-46038281D01*
X73214475Y-45995422D01*
X73091828Y-45699327D01*
X72913773Y-45432848D01*
X72687152Y-45206227D01*
X72677833Y-45200000D01*
X72687152Y-45193773D01*
X72913773Y-44967152D01*
X73091828Y-44700673D01*
X73214475Y-44404578D01*
X73277000Y-44090245D01*
X73277000Y-43769755D01*
X73214475Y-43455422D01*
X73091828Y-43159327D01*
X72913773Y-42892848D01*
X72687152Y-42666227D01*
X72677833Y-42660000D01*
X72687152Y-42653773D01*
X72913773Y-42427152D01*
X73091828Y-42160673D01*
X73214475Y-41864578D01*
X73277000Y-41550245D01*
X73277000Y-41229755D01*
X73226754Y-40977153D01*
X75708334Y-40977153D01*
X75731732Y-41000551D01*
X75916318Y-41123887D01*
X76121419Y-41208843D01*
X76339153Y-41252153D01*
X76561153Y-41252153D01*
X76778887Y-41208843D01*
X76983988Y-41123887D01*
X77168574Y-41000551D01*
X77325551Y-40843574D01*
X77448887Y-40658988D01*
X77533843Y-40453887D01*
X77577153Y-40236153D01*
X77577153Y-40014153D01*
X77533843Y-39796419D01*
X77448887Y-39591318D01*
X77325551Y-39406732D01*
X77168574Y-39249755D01*
X76983988Y-39126419D01*
X76778887Y-39041463D01*
X76561153Y-38998153D01*
X76339153Y-38998153D01*
X76121419Y-39041463D01*
X75916318Y-39126419D01*
X75731732Y-39249755D01*
X75708334Y-39273153D01*
X73224704Y-39273153D01*
X73277000Y-39010245D01*
X73277000Y-38689755D01*
X73214475Y-38375422D01*
X73091828Y-38079327D01*
X72913773Y-37812848D01*
X72687152Y-37586227D01*
X72677833Y-37580000D01*
X72687152Y-37573773D01*
X72913773Y-37347152D01*
X73091828Y-37080673D01*
X73214475Y-36784578D01*
X73277000Y-36470245D01*
X73277000Y-36149755D01*
X73214475Y-35835422D01*
X73091828Y-35539327D01*
X72913773Y-35272848D01*
X72687152Y-35046227D01*
X72504755Y-34924353D01*
X72534475Y-34834080D01*
X71650000Y-33949605D01*
X70765525Y-34834080D01*
X70795245Y-34924353D01*
X70612848Y-35046227D01*
X70386227Y-35272848D01*
X70208172Y-35539327D01*
X70085525Y-35835422D01*
X70023000Y-36149755D01*
X70023000Y-36470245D01*
X70085525Y-36784578D01*
X70208172Y-37080673D01*
X70386227Y-37347152D01*
X70612848Y-37573773D01*
X70622167Y-37580000D01*
X70612848Y-37586227D01*
X70386227Y-37812848D01*
X70208172Y-38079327D01*
X70085525Y-38375422D01*
X70023000Y-38689755D01*
X70023000Y-39010245D01*
X70075296Y-39273153D01*
X68868405Y-39273153D01*
X68866852Y-39273000D01*
X68866849Y-39273000D01*
X68825000Y-39268878D01*
X68783151Y-39273000D01*
X65453222Y-39273000D01*
X65533690Y-39078734D01*
X65577000Y-38861000D01*
X65577000Y-38639000D01*
X65533690Y-38421266D01*
X65448734Y-38216165D01*
X65325398Y-38031579D01*
X65168421Y-37874602D01*
X64983835Y-37751266D01*
X64778734Y-37666310D01*
X64561000Y-37623000D01*
X64339000Y-37623000D01*
X64121266Y-37666310D01*
X63916165Y-37751266D01*
X63731579Y-37874602D01*
X63708181Y-37898000D01*
X63602910Y-37898000D01*
X62902000Y-37197091D01*
X62902000Y-36241848D01*
X62906122Y-36199999D01*
X62899521Y-36132980D01*
X62889672Y-36032979D01*
X62840954Y-35872376D01*
X62831327Y-35854365D01*
X62761839Y-35724363D01*
X62705582Y-35655814D01*
X62655370Y-35594630D01*
X62622860Y-35567950D01*
X61177000Y-34122091D01*
X61177000Y-34089000D01*
X61133690Y-33871266D01*
X61119312Y-33836553D01*
X70109009Y-33836553D01*
X70151603Y-34135907D01*
X70251778Y-34421199D01*
X70331739Y-34570792D01*
X70585920Y-34654475D01*
X71470395Y-33770000D01*
X71829605Y-33770000D01*
X72714080Y-34654475D01*
X72968261Y-34570792D01*
X73099158Y-34298225D01*
X73174365Y-34005358D01*
X73190991Y-33703447D01*
X73148397Y-33404093D01*
X73048222Y-33118801D01*
X72968261Y-32969208D01*
X72714080Y-32885525D01*
X71829605Y-33770000D01*
X71470395Y-33770000D01*
X70585920Y-32885525D01*
X70331739Y-32969208D01*
X70200842Y-33241775D01*
X70125635Y-33534642D01*
X70109009Y-33836553D01*
X61119312Y-33836553D01*
X61048734Y-33666165D01*
X60925398Y-33481579D01*
X60768421Y-33324602D01*
X60583835Y-33201266D01*
X60378734Y-33116310D01*
X60161000Y-33073000D01*
X59939000Y-33073000D01*
X59721266Y-33116310D01*
X59516165Y-33201266D01*
X59331579Y-33324602D01*
X59174602Y-33481579D01*
X59051266Y-33666165D01*
X58966310Y-33871266D01*
X58923000Y-34089000D01*
X58923000Y-34311000D01*
X58966310Y-34528734D01*
X59051266Y-34733835D01*
X59174602Y-34918421D01*
X59331579Y-35075398D01*
X59516165Y-35198734D01*
X59721266Y-35283690D01*
X59939000Y-35327000D01*
X59972091Y-35327000D01*
X61198001Y-36552911D01*
X61198000Y-37508150D01*
X61193878Y-37550000D01*
X61198000Y-37591849D01*
X61198000Y-37591851D01*
X61210328Y-37717020D01*
X61253237Y-37858474D01*
X61259046Y-37877623D01*
X61338161Y-38025636D01*
X61365580Y-38059046D01*
X61444630Y-38155370D01*
X61477145Y-38182055D01*
X62568090Y-39273000D01*
X62266819Y-39273000D01*
X62193421Y-39199602D01*
X62008835Y-39076266D01*
X61803734Y-38991310D01*
X61586000Y-38948000D01*
X61364000Y-38948000D01*
X61146266Y-38991310D01*
X60941165Y-39076266D01*
X60756579Y-39199602D01*
X60599602Y-39356579D01*
X60476266Y-39541165D01*
X60391310Y-39746266D01*
X60348000Y-39964000D01*
X60348000Y-40186000D01*
X60391310Y-40403734D01*
X60476266Y-40608835D01*
X60599602Y-40793421D01*
X60756579Y-40950398D01*
X60941165Y-41073734D01*
X61146266Y-41158690D01*
X61364000Y-41202000D01*
X61586000Y-41202000D01*
X61803734Y-41158690D01*
X62008835Y-41073734D01*
X62153608Y-40977000D01*
X63361423Y-40977000D01*
X63291310Y-41146266D01*
X63248000Y-41364000D01*
X63248000Y-41586000D01*
X63291310Y-41803734D01*
X63376266Y-42008835D01*
X63499602Y-42193421D01*
X63523000Y-42216819D01*
X63523001Y-45933141D01*
X63518878Y-45975000D01*
X63535329Y-46142020D01*
X63584046Y-46302623D01*
X63598000Y-46328729D01*
X63598000Y-46436000D01*
X63641310Y-46653734D01*
X63726266Y-46858835D01*
X63849602Y-47043421D01*
X64006579Y-47200398D01*
X64191165Y-47323734D01*
X64396266Y-47408690D01*
X64614000Y-47452000D01*
X64836000Y-47452000D01*
X65053734Y-47408690D01*
X65258835Y-47323734D01*
X65443421Y-47200398D01*
X65600398Y-47043421D01*
X65723734Y-46858835D01*
X65808690Y-46653734D01*
X65852000Y-46436000D01*
X65852000Y-46214000D01*
X65808690Y-45996266D01*
X65723734Y-45791165D01*
X65600398Y-45606579D01*
X65443421Y-45449602D01*
X65258835Y-45326266D01*
X65227000Y-45313079D01*
X65227000Y-42216819D01*
X65250398Y-42193421D01*
X65373734Y-42008835D01*
X65458690Y-41803734D01*
X65502000Y-41586000D01*
X65502000Y-41364000D01*
X65458690Y-41146266D01*
X65388577Y-40977000D01*
X68781748Y-40977000D01*
X68783301Y-40977153D01*
X68783303Y-40977153D01*
X68825152Y-40981275D01*
X68867001Y-40977153D01*
X70073246Y-40977153D01*
X70023000Y-41229755D01*
X70023000Y-41550245D01*
X70085525Y-41864578D01*
X70208172Y-42160673D01*
X70386227Y-42427152D01*
X70612848Y-42653773D01*
X70622167Y-42660000D01*
X70612848Y-42666227D01*
X70386227Y-42892848D01*
X70208172Y-43159327D01*
X70085525Y-43455422D01*
X70023000Y-43769755D01*
X70023000Y-44090245D01*
X70066443Y-44308647D01*
X69202146Y-45172945D01*
X69169630Y-45199630D01*
X69100845Y-45283446D01*
X69063161Y-45329364D01*
X68988912Y-45468273D01*
X68984046Y-45477377D01*
X68935328Y-45637980D01*
X68923000Y-45763148D01*
X68918878Y-45805000D01*
X68923000Y-45846849D01*
X68923001Y-50483141D01*
X68918878Y-50525000D01*
X68926955Y-50607000D01*
X68935329Y-50692021D01*
X68940883Y-50710329D01*
X68984046Y-50852623D01*
X69063161Y-51000636D01*
X69129066Y-51080941D01*
X69169631Y-51130370D01*
X69202141Y-51157050D01*
X70027138Y-51982048D01*
X70027144Y-51982053D01*
X70043071Y-51997980D01*
X60000710Y-51997980D01*
X59177020Y-51174291D01*
X59177020Y-41566869D01*
X59181142Y-41525020D01*
X59173753Y-41450000D01*
X59164692Y-41357999D01*
X59115974Y-41197396D01*
X59036859Y-41049384D01*
X58930390Y-40919650D01*
X58897881Y-40892971D01*
X57233557Y-39228647D01*
X57277000Y-39010245D01*
X57277000Y-38689755D01*
X57214475Y-38375422D01*
X57091828Y-38079327D01*
X56913773Y-37812848D01*
X56687152Y-37586227D01*
X56677833Y-37580000D01*
X56687152Y-37573773D01*
X56913773Y-37347152D01*
X57091828Y-37080673D01*
X57214475Y-36784578D01*
X57277000Y-36470245D01*
X57277000Y-36149755D01*
X57214475Y-35835422D01*
X57091828Y-35539327D01*
X56913773Y-35272848D01*
X56687152Y-35046227D01*
X56677833Y-35040000D01*
X56687152Y-35033773D01*
X56913773Y-34807152D01*
X57091828Y-34540673D01*
X57214475Y-34244578D01*
X57277000Y-33930245D01*
X57277000Y-33609755D01*
X57214475Y-33295422D01*
X57091828Y-32999327D01*
X56913773Y-32732848D01*
X56687152Y-32506227D01*
X56677833Y-32500000D01*
X56687152Y-32493773D01*
X56913773Y-32267152D01*
X57091828Y-32000673D01*
X57214475Y-31704578D01*
X57277000Y-31390245D01*
X57277000Y-31069755D01*
X57214475Y-30755422D01*
X57091828Y-30459327D01*
X56913773Y-30192848D01*
X56687152Y-29966227D01*
X56420673Y-29788172D01*
X56333346Y-29752000D01*
X70966654Y-29752000D01*
X70879327Y-29788172D01*
X70612848Y-29966227D01*
X70386227Y-30192848D01*
X70208172Y-30459327D01*
X70085525Y-30755422D01*
X70023000Y-31069755D01*
X70023000Y-31390245D01*
X70085525Y-31704578D01*
X70208172Y-32000673D01*
X70386227Y-32267152D01*
X70612848Y-32493773D01*
X70795245Y-32615647D01*
X70765525Y-32705920D01*
X71650000Y-33590395D01*
X72534475Y-32705920D01*
X72504755Y-32615647D01*
X72687152Y-32493773D01*
X72913773Y-32267152D01*
X72974010Y-32177000D01*
X75281992Y-32177000D01*
X75283520Y-32192517D01*
X75325090Y-32329557D01*
X75392597Y-32455853D01*
X75483446Y-32566554D01*
X75594147Y-32657403D01*
X75720443Y-32724910D01*
X75857483Y-32766480D01*
X75873000Y-32768008D01*
X75873000Y-33602007D01*
X75868273Y-33650000D01*
X75887137Y-33841525D01*
X75914050Y-33930245D01*
X75943003Y-34025690D01*
X76033724Y-34195418D01*
X76155814Y-34344186D01*
X76193098Y-34374784D01*
X80273001Y-38454687D01*
X80273000Y-42545313D01*
X78668093Y-44150221D01*
X78630815Y-44180814D01*
X78600222Y-44218092D01*
X78600221Y-44218093D01*
X78508725Y-44329582D01*
X78418003Y-44499310D01*
X78362137Y-44683475D01*
X78343273Y-44875000D01*
X78348001Y-44923003D01*
X78348000Y-47277007D01*
X78343273Y-47325000D01*
X78360045Y-47495279D01*
X78362137Y-47516524D01*
X78418003Y-47700690D01*
X78508724Y-47870418D01*
X78630814Y-48019186D01*
X78668098Y-48049784D01*
X81871349Y-51253036D01*
X81791310Y-51446266D01*
X81748000Y-51664000D01*
X81748000Y-51886000D01*
X81791310Y-52103734D01*
X81876266Y-52308835D01*
X81999602Y-52493421D01*
X82156579Y-52650398D01*
X82341165Y-52773734D01*
X82546266Y-52858690D01*
X82764000Y-52902000D01*
X82986000Y-52902000D01*
X83203734Y-52858690D01*
X83408835Y-52773734D01*
X83593421Y-52650398D01*
X83750398Y-52493421D01*
X83873734Y-52308835D01*
X83958690Y-52103734D01*
X84002000Y-51886000D01*
X84002000Y-51664000D01*
X83958690Y-51446266D01*
X83873734Y-51241165D01*
X83852000Y-51208638D01*
X83852000Y-50922990D01*
X83856727Y-50874999D01*
X83849916Y-50805853D01*
X83837863Y-50683475D01*
X83781997Y-50499309D01*
X83691276Y-50329582D01*
X83569186Y-50180814D01*
X83531907Y-50150220D01*
X80302000Y-46920314D01*
X80302000Y-45279686D01*
X81906907Y-43674780D01*
X81944186Y-43644186D01*
X82066276Y-43495418D01*
X82156997Y-43325691D01*
X82212863Y-43141525D01*
X82227000Y-42997993D01*
X82227000Y-42997991D01*
X82231727Y-42950001D01*
X82227000Y-42902010D01*
X82227000Y-38097993D01*
X82231727Y-38050000D01*
X82212863Y-37858474D01*
X82173138Y-37727519D01*
X82156997Y-37674309D01*
X82066276Y-37504582D01*
X81944186Y-37355814D01*
X81906902Y-37325216D01*
X77827000Y-33245314D01*
X77827000Y-32768008D01*
X77842517Y-32766480D01*
X77979557Y-32724910D01*
X78105853Y-32657403D01*
X78216554Y-32566554D01*
X78307403Y-32455853D01*
X78374910Y-32329557D01*
X78385898Y-32293335D01*
X78389731Y-32297588D01*
X78623080Y-32471641D01*
X78885901Y-32596825D01*
X79033110Y-32641476D01*
X79263000Y-32520155D01*
X79263000Y-31327000D01*
X79243000Y-31327000D01*
X79243000Y-31073000D01*
X79263000Y-31073000D01*
X79263000Y-31053000D01*
X79517000Y-31053000D01*
X79517000Y-31073000D01*
X79537000Y-31073000D01*
X79537000Y-31327000D01*
X79517000Y-31327000D01*
X79517000Y-32520155D01*
X79746890Y-32641476D01*
X79894099Y-32596825D01*
X80156920Y-32471641D01*
X80390269Y-32297588D01*
X80585178Y-32081355D01*
X80602656Y-32052014D01*
X80705064Y-32205279D01*
X80924721Y-32424936D01*
X81183011Y-32597519D01*
X81470006Y-32716396D01*
X81774679Y-32777000D01*
X82085321Y-32777000D01*
X82389994Y-32716396D01*
X82676989Y-32597519D01*
X82935279Y-32424936D01*
X83154936Y-32205279D01*
X83200000Y-32137836D01*
X83245064Y-32205279D01*
X83464721Y-32424936D01*
X83723011Y-32597519D01*
X84010006Y-32716396D01*
X84314679Y-32777000D01*
X84625321Y-32777000D01*
X84929994Y-32716396D01*
X85216989Y-32597519D01*
X85475279Y-32424936D01*
X85565930Y-32334285D01*
X85633446Y-32416554D01*
X85744147Y-32507403D01*
X85823840Y-32550000D01*
X85744147Y-32592597D01*
X85633446Y-32683446D01*
X85542597Y-32794147D01*
X85475090Y-32920443D01*
X85433520Y-33057483D01*
X85419483Y-33200000D01*
X85419483Y-34500000D01*
X85433520Y-34642517D01*
X85475090Y-34779557D01*
X85542597Y-34905853D01*
X85633446Y-35016554D01*
X85744147Y-35107403D01*
X85763500Y-35117748D01*
X85683446Y-35183446D01*
X85592597Y-35294147D01*
X85525090Y-35420443D01*
X85483520Y-35557483D01*
X85469483Y-35700000D01*
X85469483Y-37000000D01*
X85483520Y-37142517D01*
X85525090Y-37279557D01*
X85592597Y-37405853D01*
X85683446Y-37516554D01*
X85785126Y-37600000D01*
X85683446Y-37683446D01*
X85592597Y-37794147D01*
X85525090Y-37920443D01*
X85483520Y-38057483D01*
X85469483Y-38200000D01*
X85469483Y-39500000D01*
X85483520Y-39642517D01*
X85525090Y-39779557D01*
X85592597Y-39905853D01*
X85683446Y-40016554D01*
X85794147Y-40107403D01*
X85898840Y-40163363D01*
X85844147Y-40192597D01*
X85733446Y-40283446D01*
X85642597Y-40394147D01*
X85575090Y-40520443D01*
X85533520Y-40657483D01*
X85519483Y-40800000D01*
X85519483Y-41912529D01*
X85405814Y-42005814D01*
X85375220Y-42043093D01*
X82709636Y-44708678D01*
X82671266Y-44716310D01*
X82466165Y-44801266D01*
X82281579Y-44924602D01*
X82124602Y-45081579D01*
X82001266Y-45266165D01*
X81916310Y-45471266D01*
X81873000Y-45689000D01*
X81873000Y-45911000D01*
X81916310Y-46128734D01*
X82001266Y-46333835D01*
X82124602Y-46518421D01*
X82281579Y-46675398D01*
X82466165Y-46798734D01*
X82671266Y-46883690D01*
X82889000Y-46927000D01*
X83111000Y-46927000D01*
X83328734Y-46883690D01*
X83533835Y-46798734D01*
X83718421Y-46675398D01*
X83875398Y-46518421D01*
X83998734Y-46333835D01*
X84083690Y-46128734D01*
X84091322Y-46090364D01*
X85570577Y-44611109D01*
X85583520Y-44742517D01*
X85625090Y-44879557D01*
X85692597Y-45005853D01*
X85783446Y-45116554D01*
X85863500Y-45182252D01*
X85844147Y-45192597D01*
X85733446Y-45283446D01*
X85642597Y-45394147D01*
X85575090Y-45520443D01*
X85533520Y-45657483D01*
X85519483Y-45800000D01*
X85519483Y-47100000D01*
X85533520Y-47242517D01*
X85575090Y-47379557D01*
X85642597Y-47505853D01*
X85733446Y-47616554D01*
X85844147Y-47707403D01*
X85923840Y-47750000D01*
X85844147Y-47792597D01*
X85733446Y-47883446D01*
X85642597Y-47994147D01*
X85575090Y-48120443D01*
X85533520Y-48257483D01*
X85519483Y-48400000D01*
X85519483Y-49700000D01*
X85533520Y-49842517D01*
X85575090Y-49979557D01*
X85642597Y-50105853D01*
X85733446Y-50216554D01*
X85835126Y-50300000D01*
X85733446Y-50383446D01*
X85642597Y-50494147D01*
X85575090Y-50620443D01*
X85533520Y-50757483D01*
X85519483Y-50900000D01*
X85519483Y-52200000D01*
X85533520Y-52342517D01*
X85575090Y-52479557D01*
X85642597Y-52605853D01*
X85733446Y-52716554D01*
X85844147Y-52807403D01*
X85923840Y-52850000D01*
X85844147Y-52892597D01*
X85733446Y-52983446D01*
X85642597Y-53094147D01*
X85575090Y-53220443D01*
X85533520Y-53357483D01*
X85519483Y-53500000D01*
X85519483Y-54800000D01*
X85533520Y-54942517D01*
X85575090Y-55079557D01*
X85642597Y-55205853D01*
X85733446Y-55316554D01*
X85844147Y-55407403D01*
X85970443Y-55474910D01*
X86107483Y-55516480D01*
X86250000Y-55530517D01*
X87750000Y-55530517D01*
X87892517Y-55516480D01*
X88029557Y-55474910D01*
X88155853Y-55407403D01*
X88266554Y-55316554D01*
X88350000Y-55214874D01*
X88433446Y-55316554D01*
X88544147Y-55407403D01*
X88670443Y-55474910D01*
X88807483Y-55516480D01*
X88950000Y-55530517D01*
X90450000Y-55530517D01*
X90592517Y-55516480D01*
X90729557Y-55474910D01*
X90855853Y-55407403D01*
X90966554Y-55316554D01*
X91057403Y-55205853D01*
X91124910Y-55079557D01*
X91148436Y-55002000D01*
X91349374Y-55002000D01*
X91425064Y-55115279D01*
X91644721Y-55334936D01*
X91712164Y-55380000D01*
X91644721Y-55425064D01*
X91425064Y-55644721D01*
X91252481Y-55903011D01*
X91133604Y-56190006D01*
X91073000Y-56494679D01*
X91073000Y-56805321D01*
X91133604Y-57109994D01*
X91252481Y-57396989D01*
X91425064Y-57655279D01*
X91644721Y-57874936D01*
X91712164Y-57920000D01*
X91644721Y-57965064D01*
X91425064Y-58184721D01*
X91252481Y-58443011D01*
X91133604Y-58730006D01*
X91073000Y-59034679D01*
X91073000Y-59345321D01*
X91133604Y-59649994D01*
X91252481Y-59936989D01*
X91425064Y-60195279D01*
X91644721Y-60414936D01*
X91903011Y-60587519D01*
X92190006Y-60706396D01*
X92494679Y-60767000D01*
X92805321Y-60767000D01*
X93109994Y-60706396D01*
X93396989Y-60587519D01*
X93655279Y-60414936D01*
X93748000Y-60322215D01*
X93748000Y-63748000D01*
X62965649Y-63748000D01*
X63100269Y-63647588D01*
X63295178Y-63431355D01*
X63444157Y-63181252D01*
X63541481Y-62906891D01*
X63420814Y-62677000D01*
X62227000Y-62677000D01*
X62227000Y-62697000D01*
X61973000Y-62697000D01*
X61973000Y-62677000D01*
X61953000Y-62677000D01*
X61953000Y-62423000D01*
X61973000Y-62423000D01*
X61973000Y-61229845D01*
X62227000Y-61229845D01*
X62227000Y-62423000D01*
X63420814Y-62423000D01*
X63541481Y-62193109D01*
X63444157Y-61918748D01*
X63295178Y-61668645D01*
X63100269Y-61452412D01*
X62866920Y-61278359D01*
X62604099Y-61153175D01*
X62456890Y-61108524D01*
X62227000Y-61229845D01*
X61973000Y-61229845D01*
X61743110Y-61108524D01*
X61595901Y-61153175D01*
X61333080Y-61278359D01*
X61099731Y-61452412D01*
X61095898Y-61456665D01*
X61084910Y-61420443D01*
X61017403Y-61294147D01*
X60926554Y-61183446D01*
X60815853Y-61092597D01*
X60689557Y-61025090D01*
X60552517Y-60983520D01*
X60410000Y-60969483D01*
X58710000Y-60969483D01*
X58567483Y-60983520D01*
X58430443Y-61025090D01*
X58304147Y-61092597D01*
X58193446Y-61183446D01*
X58102597Y-61294147D01*
X58035090Y-61420443D01*
X57993520Y-61557483D01*
X57979483Y-61700000D01*
X57979483Y-63400000D01*
X57993520Y-63542517D01*
X58035090Y-63679557D01*
X58071674Y-63748000D01*
X53752000Y-63748000D01*
X53752000Y-60075000D01*
X54194483Y-60075000D01*
X54194483Y-61425000D01*
X54208520Y-61567517D01*
X54250090Y-61704557D01*
X54317597Y-61830853D01*
X54408446Y-61941554D01*
X54519147Y-62032403D01*
X54645443Y-62099910D01*
X54782483Y-62141480D01*
X54925000Y-62155517D01*
X56275000Y-62155517D01*
X56417517Y-62141480D01*
X56554557Y-62099910D01*
X56680853Y-62032403D01*
X56791554Y-61941554D01*
X56882403Y-61830853D01*
X56949910Y-61704557D01*
X56991480Y-61567517D01*
X57005517Y-61425000D01*
X57005517Y-60075000D01*
X56991480Y-59932483D01*
X56949910Y-59795443D01*
X56882403Y-59669147D01*
X56791554Y-59558446D01*
X56762124Y-59534293D01*
X56842437Y-59414096D01*
X56948122Y-59158948D01*
X57002000Y-58888085D01*
X57002000Y-58611915D01*
X56948122Y-58341052D01*
X56842437Y-58085904D01*
X56689005Y-57856277D01*
X56582728Y-57750000D01*
X56689005Y-57643723D01*
X56721775Y-57594679D01*
X65133000Y-57594679D01*
X65133000Y-57905321D01*
X65193604Y-58209994D01*
X65312481Y-58496989D01*
X65485064Y-58755279D01*
X65704721Y-58974936D01*
X65963011Y-59147519D01*
X66250006Y-59266396D01*
X66554679Y-59327000D01*
X66865321Y-59327000D01*
X67169994Y-59266396D01*
X67456989Y-59147519D01*
X67715279Y-58974936D01*
X67911818Y-58778397D01*
X68401208Y-58778397D01*
X68478843Y-59027472D01*
X68742883Y-59153371D01*
X69026411Y-59225339D01*
X69318531Y-59240611D01*
X69608019Y-59198599D01*
X69883747Y-59100919D01*
X70021157Y-59027472D01*
X70098792Y-58778397D01*
X69250000Y-57929605D01*
X68401208Y-58778397D01*
X67911818Y-58778397D01*
X67934936Y-58755279D01*
X68070886Y-58551815D01*
X68221603Y-58598792D01*
X69070395Y-57750000D01*
X69429605Y-57750000D01*
X70278397Y-58598792D01*
X70527472Y-58521157D01*
X70653371Y-58257117D01*
X70725339Y-57973589D01*
X70740611Y-57681469D01*
X70728016Y-57594679D01*
X75293000Y-57594679D01*
X75293000Y-57905321D01*
X75353604Y-58209994D01*
X75472481Y-58496989D01*
X75645064Y-58755279D01*
X75864721Y-58974936D01*
X76123011Y-59147519D01*
X76410006Y-59266396D01*
X76714679Y-59327000D01*
X77025321Y-59327000D01*
X77329994Y-59266396D01*
X77616989Y-59147519D01*
X77875279Y-58974936D01*
X78094936Y-58755279D01*
X78140000Y-58687836D01*
X78185064Y-58755279D01*
X78404721Y-58974936D01*
X78663011Y-59147519D01*
X78950006Y-59266396D01*
X79254679Y-59327000D01*
X79565321Y-59327000D01*
X79869994Y-59266396D01*
X80156989Y-59147519D01*
X80415279Y-58974936D01*
X80634936Y-58755279D01*
X80680000Y-58687836D01*
X80725064Y-58755279D01*
X80944721Y-58974936D01*
X81203011Y-59147519D01*
X81490006Y-59266396D01*
X81794679Y-59327000D01*
X82105321Y-59327000D01*
X82409994Y-59266396D01*
X82696989Y-59147519D01*
X82955279Y-58974936D01*
X83151818Y-58778397D01*
X83641208Y-58778397D01*
X83718843Y-59027472D01*
X83982883Y-59153371D01*
X84266411Y-59225339D01*
X84558531Y-59240611D01*
X84848019Y-59198599D01*
X85123747Y-59100919D01*
X85261157Y-59027472D01*
X85338792Y-58778397D01*
X84490000Y-57929605D01*
X83641208Y-58778397D01*
X83151818Y-58778397D01*
X83174936Y-58755279D01*
X83310886Y-58551815D01*
X83461603Y-58598792D01*
X84310395Y-57750000D01*
X84669605Y-57750000D01*
X85518397Y-58598792D01*
X85767472Y-58521157D01*
X85893371Y-58257117D01*
X85965339Y-57973589D01*
X85980611Y-57681469D01*
X85938599Y-57391981D01*
X85840919Y-57116253D01*
X85767472Y-56978843D01*
X85518397Y-56901208D01*
X84669605Y-57750000D01*
X84310395Y-57750000D01*
X83461603Y-56901208D01*
X83310886Y-56948185D01*
X83174936Y-56744721D01*
X83151818Y-56721603D01*
X83641208Y-56721603D01*
X84490000Y-57570395D01*
X85338792Y-56721603D01*
X85261157Y-56472528D01*
X84997117Y-56346629D01*
X84713589Y-56274661D01*
X84421469Y-56259389D01*
X84131981Y-56301401D01*
X83856253Y-56399081D01*
X83718843Y-56472528D01*
X83641208Y-56721603D01*
X83151818Y-56721603D01*
X82955279Y-56525064D01*
X82696989Y-56352481D01*
X82409994Y-56233604D01*
X82105321Y-56173000D01*
X81794679Y-56173000D01*
X81490006Y-56233604D01*
X81203011Y-56352481D01*
X80944721Y-56525064D01*
X80725064Y-56744721D01*
X80680000Y-56812164D01*
X80634936Y-56744721D01*
X80415279Y-56525064D01*
X80156989Y-56352481D01*
X79869994Y-56233604D01*
X79565321Y-56173000D01*
X79254679Y-56173000D01*
X78950006Y-56233604D01*
X78663011Y-56352481D01*
X78404721Y-56525064D01*
X78185064Y-56744721D01*
X78140000Y-56812164D01*
X78094936Y-56744721D01*
X77875279Y-56525064D01*
X77616989Y-56352481D01*
X77329994Y-56233604D01*
X77025321Y-56173000D01*
X76714679Y-56173000D01*
X76410006Y-56233604D01*
X76123011Y-56352481D01*
X75864721Y-56525064D01*
X75645064Y-56744721D01*
X75472481Y-57003011D01*
X75353604Y-57290006D01*
X75293000Y-57594679D01*
X70728016Y-57594679D01*
X70698599Y-57391981D01*
X70600919Y-57116253D01*
X70527472Y-56978843D01*
X70278397Y-56901208D01*
X69429605Y-57750000D01*
X69070395Y-57750000D01*
X68221603Y-56901208D01*
X68070886Y-56948185D01*
X67934936Y-56744721D01*
X67911818Y-56721603D01*
X68401208Y-56721603D01*
X69250000Y-57570395D01*
X70098792Y-56721603D01*
X70021157Y-56472528D01*
X69757117Y-56346629D01*
X69473589Y-56274661D01*
X69181469Y-56259389D01*
X68891981Y-56301401D01*
X68616253Y-56399081D01*
X68478843Y-56472528D01*
X68401208Y-56721603D01*
X67911818Y-56721603D01*
X67715279Y-56525064D01*
X67456989Y-56352481D01*
X67169994Y-56233604D01*
X66865321Y-56173000D01*
X66554679Y-56173000D01*
X66250006Y-56233604D01*
X65963011Y-56352481D01*
X65704721Y-56525064D01*
X65485064Y-56744721D01*
X65312481Y-57003011D01*
X65193604Y-57290006D01*
X65133000Y-57594679D01*
X56721775Y-57594679D01*
X56842437Y-57414096D01*
X56948122Y-57158948D01*
X57002000Y-56888085D01*
X57002000Y-56611915D01*
X56948122Y-56341052D01*
X56842437Y-56085904D01*
X56689005Y-55856277D01*
X56493723Y-55660995D01*
X56264096Y-55507563D01*
X56008948Y-55401878D01*
X55738085Y-55348000D01*
X55461915Y-55348000D01*
X55191052Y-55401878D01*
X54935904Y-55507563D01*
X54706277Y-55660995D01*
X54510995Y-55856277D01*
X54357563Y-56085904D01*
X54251878Y-56341052D01*
X54198000Y-56611915D01*
X54198000Y-56888085D01*
X54251878Y-57158948D01*
X54357563Y-57414096D01*
X54510995Y-57643723D01*
X54617272Y-57750000D01*
X54510995Y-57856277D01*
X54357563Y-58085904D01*
X54251878Y-58341052D01*
X54198000Y-58611915D01*
X54198000Y-58888085D01*
X54251878Y-59158948D01*
X54357563Y-59414096D01*
X54437876Y-59534293D01*
X54408446Y-59558446D01*
X54317597Y-59669147D01*
X54250090Y-59795443D01*
X54208520Y-59932483D01*
X54194483Y-60075000D01*
X53752000Y-60075000D01*
X53752000Y-29752000D01*
X54966654Y-29752000D01*
X54879327Y-29788172D01*
G04 #@! TA.AperFunction,Conductor*
D21*
G36*
X54879327Y-29788172D02*
G01*
X54612848Y-29966227D01*
X54386227Y-30192848D01*
X54208172Y-30459327D01*
X54085525Y-30755422D01*
X54023000Y-31069755D01*
X54023000Y-31390245D01*
X54085525Y-31704578D01*
X54208172Y-32000673D01*
X54386227Y-32267152D01*
X54612848Y-32493773D01*
X54622167Y-32500000D01*
X54612848Y-32506227D01*
X54386227Y-32732848D01*
X54208172Y-32999327D01*
X54085525Y-33295422D01*
X54023000Y-33609755D01*
X54023000Y-33930245D01*
X54085525Y-34244578D01*
X54208172Y-34540673D01*
X54386227Y-34807152D01*
X54612848Y-35033773D01*
X54622167Y-35040000D01*
X54612848Y-35046227D01*
X54386227Y-35272848D01*
X54208172Y-35539327D01*
X54085525Y-35835422D01*
X54023000Y-36149755D01*
X54023000Y-36470245D01*
X54085525Y-36784578D01*
X54208172Y-37080673D01*
X54386227Y-37347152D01*
X54612848Y-37573773D01*
X54622167Y-37580000D01*
X54612848Y-37586227D01*
X54386227Y-37812848D01*
X54208172Y-38079327D01*
X54085525Y-38375422D01*
X54023000Y-38689755D01*
X54023000Y-39010245D01*
X54085525Y-39324578D01*
X54208172Y-39620673D01*
X54386227Y-39887152D01*
X54612848Y-40113773D01*
X54622167Y-40120000D01*
X54612848Y-40126227D01*
X54386227Y-40352848D01*
X54208172Y-40619327D01*
X54085525Y-40915422D01*
X54023000Y-41229755D01*
X54023000Y-41550245D01*
X54085525Y-41864578D01*
X54208172Y-42160673D01*
X54386227Y-42427152D01*
X54612848Y-42653773D01*
X54622167Y-42660000D01*
X54612848Y-42666227D01*
X54386227Y-42892848D01*
X54208172Y-43159327D01*
X54085525Y-43455422D01*
X54023000Y-43769755D01*
X54023000Y-44090245D01*
X54085525Y-44404578D01*
X54208172Y-44700673D01*
X54386227Y-44967152D01*
X54612848Y-45193773D01*
X54622167Y-45200000D01*
X54612848Y-45206227D01*
X54386227Y-45432848D01*
X54208172Y-45699327D01*
X54085525Y-45995422D01*
X54023000Y-46309755D01*
X54023000Y-46630245D01*
X54085525Y-46944578D01*
X54208172Y-47240673D01*
X54386227Y-47507152D01*
X54612848Y-47733773D01*
X54879327Y-47911828D01*
X55175422Y-48034475D01*
X55489755Y-48097000D01*
X55810245Y-48097000D01*
X56124578Y-48034475D01*
X56420673Y-47911828D01*
X56573000Y-47810046D01*
X56573001Y-51858141D01*
X56568878Y-51900000D01*
X56577637Y-51988926D01*
X56585329Y-52067021D01*
X56596466Y-52103734D01*
X56634046Y-52227623D01*
X56713161Y-52375636D01*
X56772541Y-52447990D01*
X56819631Y-52505370D01*
X56852141Y-52532050D01*
X58642950Y-54322860D01*
X58669630Y-54355370D01*
X58702138Y-54382048D01*
X58799363Y-54461839D01*
X58918821Y-54525691D01*
X58947376Y-54540954D01*
X59107979Y-54589672D01*
X59233148Y-54602000D01*
X59233150Y-54602000D01*
X59274999Y-54606122D01*
X59316848Y-54602000D01*
X77483181Y-54602000D01*
X77506579Y-54625398D01*
X77691165Y-54748734D01*
X77896266Y-54833690D01*
X78114000Y-54877000D01*
X78156019Y-54877000D01*
X78166310Y-54928734D01*
X78251266Y-55133835D01*
X78374602Y-55318421D01*
X78531579Y-55475398D01*
X78716165Y-55598734D01*
X78921266Y-55683690D01*
X79139000Y-55727000D01*
X79361000Y-55727000D01*
X79578734Y-55683690D01*
X79783835Y-55598734D01*
X79968421Y-55475398D01*
X80125398Y-55318421D01*
X80248734Y-55133835D01*
X80333690Y-54928734D01*
X80377000Y-54711000D01*
X80377000Y-54489000D01*
X80333690Y-54271266D01*
X80248734Y-54066165D01*
X80125398Y-53881579D01*
X80102000Y-53858181D01*
X80102000Y-53743846D01*
X80106122Y-53701997D01*
X80100108Y-53640934D01*
X80089672Y-53534977D01*
X80040954Y-53374374D01*
X79989833Y-53278734D01*
X79961839Y-53226361D01*
X79882048Y-53129136D01*
X79855370Y-53096628D01*
X79822861Y-53069949D01*
X77755057Y-51002146D01*
X77728372Y-50969630D01*
X77598638Y-50863161D01*
X77450626Y-50784046D01*
X77290023Y-50735328D01*
X77164854Y-50723000D01*
X77164851Y-50723000D01*
X77123002Y-50718878D01*
X77081153Y-50723000D01*
X75701689Y-50723000D01*
X75724910Y-50679557D01*
X75766480Y-50542517D01*
X75780517Y-50400000D01*
X75780517Y-48700000D01*
X75766480Y-48557483D01*
X75724910Y-48420443D01*
X75657403Y-48294147D01*
X75566554Y-48183446D01*
X75455853Y-48092597D01*
X75329557Y-48025090D01*
X75192517Y-47983520D01*
X75177000Y-47981992D01*
X75177000Y-45004686D01*
X76404687Y-43777000D01*
X77483638Y-43777000D01*
X77516165Y-43798734D01*
X77721266Y-43883690D01*
X77939000Y-43927000D01*
X78161000Y-43927000D01*
X78378734Y-43883690D01*
X78583835Y-43798734D01*
X78768421Y-43675398D01*
X78925398Y-43518421D01*
X79048734Y-43333835D01*
X79133690Y-43128734D01*
X79177000Y-42911000D01*
X79177000Y-42689000D01*
X79133690Y-42471266D01*
X79048734Y-42266165D01*
X78925398Y-42081579D01*
X78768421Y-41924602D01*
X78583835Y-41801266D01*
X78378734Y-41716310D01*
X78161000Y-41673000D01*
X77939000Y-41673000D01*
X77721266Y-41716310D01*
X77516165Y-41801266D01*
X77483638Y-41823000D01*
X76047982Y-41823000D01*
X75999999Y-41818274D01*
X75952016Y-41823000D01*
X75952007Y-41823000D01*
X75808475Y-41837137D01*
X75624309Y-41893003D01*
X75454582Y-41983724D01*
X75305814Y-42105814D01*
X75275220Y-42143093D01*
X73543098Y-43875216D01*
X73505814Y-43905814D01*
X73383724Y-44054582D01*
X73316252Y-44180814D01*
X73293003Y-44224310D01*
X73237137Y-44408475D01*
X73218273Y-44600000D01*
X73223000Y-44647993D01*
X73223000Y-46038281D01*
X73214475Y-45995422D01*
X73091828Y-45699327D01*
X72913773Y-45432848D01*
X72687152Y-45206227D01*
X72677833Y-45200000D01*
X72687152Y-45193773D01*
X72913773Y-44967152D01*
X73091828Y-44700673D01*
X73214475Y-44404578D01*
X73277000Y-44090245D01*
X73277000Y-43769755D01*
X73214475Y-43455422D01*
X73091828Y-43159327D01*
X72913773Y-42892848D01*
X72687152Y-42666227D01*
X72677833Y-42660000D01*
X72687152Y-42653773D01*
X72913773Y-42427152D01*
X73091828Y-42160673D01*
X73214475Y-41864578D01*
X73277000Y-41550245D01*
X73277000Y-41229755D01*
X73226754Y-40977153D01*
X75708334Y-40977153D01*
X75731732Y-41000551D01*
X75916318Y-41123887D01*
X76121419Y-41208843D01*
X76339153Y-41252153D01*
X76561153Y-41252153D01*
X76778887Y-41208843D01*
X76983988Y-41123887D01*
X77168574Y-41000551D01*
X77325551Y-40843574D01*
X77448887Y-40658988D01*
X77533843Y-40453887D01*
X77577153Y-40236153D01*
X77577153Y-40014153D01*
X77533843Y-39796419D01*
X77448887Y-39591318D01*
X77325551Y-39406732D01*
X77168574Y-39249755D01*
X76983988Y-39126419D01*
X76778887Y-39041463D01*
X76561153Y-38998153D01*
X76339153Y-38998153D01*
X76121419Y-39041463D01*
X75916318Y-39126419D01*
X75731732Y-39249755D01*
X75708334Y-39273153D01*
X73224704Y-39273153D01*
X73277000Y-39010245D01*
X73277000Y-38689755D01*
X73214475Y-38375422D01*
X73091828Y-38079327D01*
X72913773Y-37812848D01*
X72687152Y-37586227D01*
X72677833Y-37580000D01*
X72687152Y-37573773D01*
X72913773Y-37347152D01*
X73091828Y-37080673D01*
X73214475Y-36784578D01*
X73277000Y-36470245D01*
X73277000Y-36149755D01*
X73214475Y-35835422D01*
X73091828Y-35539327D01*
X72913773Y-35272848D01*
X72687152Y-35046227D01*
X72504755Y-34924353D01*
X72534475Y-34834080D01*
X71650000Y-33949605D01*
X70765525Y-34834080D01*
X70795245Y-34924353D01*
X70612848Y-35046227D01*
X70386227Y-35272848D01*
X70208172Y-35539327D01*
X70085525Y-35835422D01*
X70023000Y-36149755D01*
X70023000Y-36470245D01*
X70085525Y-36784578D01*
X70208172Y-37080673D01*
X70386227Y-37347152D01*
X70612848Y-37573773D01*
X70622167Y-37580000D01*
X70612848Y-37586227D01*
X70386227Y-37812848D01*
X70208172Y-38079327D01*
X70085525Y-38375422D01*
X70023000Y-38689755D01*
X70023000Y-39010245D01*
X70075296Y-39273153D01*
X68868405Y-39273153D01*
X68866852Y-39273000D01*
X68866849Y-39273000D01*
X68825000Y-39268878D01*
X68783151Y-39273000D01*
X65453222Y-39273000D01*
X65533690Y-39078734D01*
X65577000Y-38861000D01*
X65577000Y-38639000D01*
X65533690Y-38421266D01*
X65448734Y-38216165D01*
X65325398Y-38031579D01*
X65168421Y-37874602D01*
X64983835Y-37751266D01*
X64778734Y-37666310D01*
X64561000Y-37623000D01*
X64339000Y-37623000D01*
X64121266Y-37666310D01*
X63916165Y-37751266D01*
X63731579Y-37874602D01*
X63708181Y-37898000D01*
X63602910Y-37898000D01*
X62902000Y-37197091D01*
X62902000Y-36241848D01*
X62906122Y-36199999D01*
X62899521Y-36132980D01*
X62889672Y-36032979D01*
X62840954Y-35872376D01*
X62831327Y-35854365D01*
X62761839Y-35724363D01*
X62705582Y-35655814D01*
X62655370Y-35594630D01*
X62622860Y-35567950D01*
X61177000Y-34122091D01*
X61177000Y-34089000D01*
X61133690Y-33871266D01*
X61119312Y-33836553D01*
X70109009Y-33836553D01*
X70151603Y-34135907D01*
X70251778Y-34421199D01*
X70331739Y-34570792D01*
X70585920Y-34654475D01*
X71470395Y-33770000D01*
X71829605Y-33770000D01*
X72714080Y-34654475D01*
X72968261Y-34570792D01*
X73099158Y-34298225D01*
X73174365Y-34005358D01*
X73190991Y-33703447D01*
X73148397Y-33404093D01*
X73048222Y-33118801D01*
X72968261Y-32969208D01*
X72714080Y-32885525D01*
X71829605Y-33770000D01*
X71470395Y-33770000D01*
X70585920Y-32885525D01*
X70331739Y-32969208D01*
X70200842Y-33241775D01*
X70125635Y-33534642D01*
X70109009Y-33836553D01*
X61119312Y-33836553D01*
X61048734Y-33666165D01*
X60925398Y-33481579D01*
X60768421Y-33324602D01*
X60583835Y-33201266D01*
X60378734Y-33116310D01*
X60161000Y-33073000D01*
X59939000Y-33073000D01*
X59721266Y-33116310D01*
X59516165Y-33201266D01*
X59331579Y-33324602D01*
X59174602Y-33481579D01*
X59051266Y-33666165D01*
X58966310Y-33871266D01*
X58923000Y-34089000D01*
X58923000Y-34311000D01*
X58966310Y-34528734D01*
X59051266Y-34733835D01*
X59174602Y-34918421D01*
X59331579Y-35075398D01*
X59516165Y-35198734D01*
X59721266Y-35283690D01*
X59939000Y-35327000D01*
X59972091Y-35327000D01*
X61198001Y-36552911D01*
X61198000Y-37508150D01*
X61193878Y-37550000D01*
X61198000Y-37591849D01*
X61198000Y-37591851D01*
X61210328Y-37717020D01*
X61253237Y-37858474D01*
X61259046Y-37877623D01*
X61338161Y-38025636D01*
X61365580Y-38059046D01*
X61444630Y-38155370D01*
X61477145Y-38182055D01*
X62568090Y-39273000D01*
X62266819Y-39273000D01*
X62193421Y-39199602D01*
X62008835Y-39076266D01*
X61803734Y-38991310D01*
X61586000Y-38948000D01*
X61364000Y-38948000D01*
X61146266Y-38991310D01*
X60941165Y-39076266D01*
X60756579Y-39199602D01*
X60599602Y-39356579D01*
X60476266Y-39541165D01*
X60391310Y-39746266D01*
X60348000Y-39964000D01*
X60348000Y-40186000D01*
X60391310Y-40403734D01*
X60476266Y-40608835D01*
X60599602Y-40793421D01*
X60756579Y-40950398D01*
X60941165Y-41073734D01*
X61146266Y-41158690D01*
X61364000Y-41202000D01*
X61586000Y-41202000D01*
X61803734Y-41158690D01*
X62008835Y-41073734D01*
X62153608Y-40977000D01*
X63361423Y-40977000D01*
X63291310Y-41146266D01*
X63248000Y-41364000D01*
X63248000Y-41586000D01*
X63291310Y-41803734D01*
X63376266Y-42008835D01*
X63499602Y-42193421D01*
X63523000Y-42216819D01*
X63523001Y-45933141D01*
X63518878Y-45975000D01*
X63535329Y-46142020D01*
X63584046Y-46302623D01*
X63598000Y-46328729D01*
X63598000Y-46436000D01*
X63641310Y-46653734D01*
X63726266Y-46858835D01*
X63849602Y-47043421D01*
X64006579Y-47200398D01*
X64191165Y-47323734D01*
X64396266Y-47408690D01*
X64614000Y-47452000D01*
X64836000Y-47452000D01*
X65053734Y-47408690D01*
X65258835Y-47323734D01*
X65443421Y-47200398D01*
X65600398Y-47043421D01*
X65723734Y-46858835D01*
X65808690Y-46653734D01*
X65852000Y-46436000D01*
X65852000Y-46214000D01*
X65808690Y-45996266D01*
X65723734Y-45791165D01*
X65600398Y-45606579D01*
X65443421Y-45449602D01*
X65258835Y-45326266D01*
X65227000Y-45313079D01*
X65227000Y-42216819D01*
X65250398Y-42193421D01*
X65373734Y-42008835D01*
X65458690Y-41803734D01*
X65502000Y-41586000D01*
X65502000Y-41364000D01*
X65458690Y-41146266D01*
X65388577Y-40977000D01*
X68781748Y-40977000D01*
X68783301Y-40977153D01*
X68783303Y-40977153D01*
X68825152Y-40981275D01*
X68867001Y-40977153D01*
X70073246Y-40977153D01*
X70023000Y-41229755D01*
X70023000Y-41550245D01*
X70085525Y-41864578D01*
X70208172Y-42160673D01*
X70386227Y-42427152D01*
X70612848Y-42653773D01*
X70622167Y-42660000D01*
X70612848Y-42666227D01*
X70386227Y-42892848D01*
X70208172Y-43159327D01*
X70085525Y-43455422D01*
X70023000Y-43769755D01*
X70023000Y-44090245D01*
X70066443Y-44308647D01*
X69202146Y-45172945D01*
X69169630Y-45199630D01*
X69100845Y-45283446D01*
X69063161Y-45329364D01*
X68988912Y-45468273D01*
X68984046Y-45477377D01*
X68935328Y-45637980D01*
X68923000Y-45763148D01*
X68918878Y-45805000D01*
X68923000Y-45846849D01*
X68923001Y-50483141D01*
X68918878Y-50525000D01*
X68926955Y-50607000D01*
X68935329Y-50692021D01*
X68940883Y-50710329D01*
X68984046Y-50852623D01*
X69063161Y-51000636D01*
X69129066Y-51080941D01*
X69169631Y-51130370D01*
X69202141Y-51157050D01*
X70027138Y-51982048D01*
X70027144Y-51982053D01*
X70043071Y-51997980D01*
X60000710Y-51997980D01*
X59177020Y-51174291D01*
X59177020Y-41566869D01*
X59181142Y-41525020D01*
X59173753Y-41450000D01*
X59164692Y-41357999D01*
X59115974Y-41197396D01*
X59036859Y-41049384D01*
X58930390Y-40919650D01*
X58897881Y-40892971D01*
X57233557Y-39228647D01*
X57277000Y-39010245D01*
X57277000Y-38689755D01*
X57214475Y-38375422D01*
X57091828Y-38079327D01*
X56913773Y-37812848D01*
X56687152Y-37586227D01*
X56677833Y-37580000D01*
X56687152Y-37573773D01*
X56913773Y-37347152D01*
X57091828Y-37080673D01*
X57214475Y-36784578D01*
X57277000Y-36470245D01*
X57277000Y-36149755D01*
X57214475Y-35835422D01*
X57091828Y-35539327D01*
X56913773Y-35272848D01*
X56687152Y-35046227D01*
X56677833Y-35040000D01*
X56687152Y-35033773D01*
X56913773Y-34807152D01*
X57091828Y-34540673D01*
X57214475Y-34244578D01*
X57277000Y-33930245D01*
X57277000Y-33609755D01*
X57214475Y-33295422D01*
X57091828Y-32999327D01*
X56913773Y-32732848D01*
X56687152Y-32506227D01*
X56677833Y-32500000D01*
X56687152Y-32493773D01*
X56913773Y-32267152D01*
X57091828Y-32000673D01*
X57214475Y-31704578D01*
X57277000Y-31390245D01*
X57277000Y-31069755D01*
X57214475Y-30755422D01*
X57091828Y-30459327D01*
X56913773Y-30192848D01*
X56687152Y-29966227D01*
X56420673Y-29788172D01*
X56333346Y-29752000D01*
X70966654Y-29752000D01*
X70879327Y-29788172D01*
X70612848Y-29966227D01*
X70386227Y-30192848D01*
X70208172Y-30459327D01*
X70085525Y-30755422D01*
X70023000Y-31069755D01*
X70023000Y-31390245D01*
X70085525Y-31704578D01*
X70208172Y-32000673D01*
X70386227Y-32267152D01*
X70612848Y-32493773D01*
X70795245Y-32615647D01*
X70765525Y-32705920D01*
X71650000Y-33590395D01*
X72534475Y-32705920D01*
X72504755Y-32615647D01*
X72687152Y-32493773D01*
X72913773Y-32267152D01*
X72974010Y-32177000D01*
X75281992Y-32177000D01*
X75283520Y-32192517D01*
X75325090Y-32329557D01*
X75392597Y-32455853D01*
X75483446Y-32566554D01*
X75594147Y-32657403D01*
X75720443Y-32724910D01*
X75857483Y-32766480D01*
X75873000Y-32768008D01*
X75873000Y-33602007D01*
X75868273Y-33650000D01*
X75887137Y-33841525D01*
X75914050Y-33930245D01*
X75943003Y-34025690D01*
X76033724Y-34195418D01*
X76155814Y-34344186D01*
X76193098Y-34374784D01*
X80273001Y-38454687D01*
X80273000Y-42545313D01*
X78668093Y-44150221D01*
X78630815Y-44180814D01*
X78600222Y-44218092D01*
X78600221Y-44218093D01*
X78508725Y-44329582D01*
X78418003Y-44499310D01*
X78362137Y-44683475D01*
X78343273Y-44875000D01*
X78348001Y-44923003D01*
X78348000Y-47277007D01*
X78343273Y-47325000D01*
X78360045Y-47495279D01*
X78362137Y-47516524D01*
X78418003Y-47700690D01*
X78508724Y-47870418D01*
X78630814Y-48019186D01*
X78668098Y-48049784D01*
X81871349Y-51253036D01*
X81791310Y-51446266D01*
X81748000Y-51664000D01*
X81748000Y-51886000D01*
X81791310Y-52103734D01*
X81876266Y-52308835D01*
X81999602Y-52493421D01*
X82156579Y-52650398D01*
X82341165Y-52773734D01*
X82546266Y-52858690D01*
X82764000Y-52902000D01*
X82986000Y-52902000D01*
X83203734Y-52858690D01*
X83408835Y-52773734D01*
X83593421Y-52650398D01*
X83750398Y-52493421D01*
X83873734Y-52308835D01*
X83958690Y-52103734D01*
X84002000Y-51886000D01*
X84002000Y-51664000D01*
X83958690Y-51446266D01*
X83873734Y-51241165D01*
X83852000Y-51208638D01*
X83852000Y-50922990D01*
X83856727Y-50874999D01*
X83849916Y-50805853D01*
X83837863Y-50683475D01*
X83781997Y-50499309D01*
X83691276Y-50329582D01*
X83569186Y-50180814D01*
X83531907Y-50150220D01*
X80302000Y-46920314D01*
X80302000Y-45279686D01*
X81906907Y-43674780D01*
X81944186Y-43644186D01*
X82066276Y-43495418D01*
X82156997Y-43325691D01*
X82212863Y-43141525D01*
X82227000Y-42997993D01*
X82227000Y-42997991D01*
X82231727Y-42950001D01*
X82227000Y-42902010D01*
X82227000Y-38097993D01*
X82231727Y-38050000D01*
X82212863Y-37858474D01*
X82173138Y-37727519D01*
X82156997Y-37674309D01*
X82066276Y-37504582D01*
X81944186Y-37355814D01*
X81906902Y-37325216D01*
X77827000Y-33245314D01*
X77827000Y-32768008D01*
X77842517Y-32766480D01*
X77979557Y-32724910D01*
X78105853Y-32657403D01*
X78216554Y-32566554D01*
X78307403Y-32455853D01*
X78374910Y-32329557D01*
X78385898Y-32293335D01*
X78389731Y-32297588D01*
X78623080Y-32471641D01*
X78885901Y-32596825D01*
X79033110Y-32641476D01*
X79263000Y-32520155D01*
X79263000Y-31327000D01*
X79243000Y-31327000D01*
X79243000Y-31073000D01*
X79263000Y-31073000D01*
X79263000Y-31053000D01*
X79517000Y-31053000D01*
X79517000Y-31073000D01*
X79537000Y-31073000D01*
X79537000Y-31327000D01*
X79517000Y-31327000D01*
X79517000Y-32520155D01*
X79746890Y-32641476D01*
X79894099Y-32596825D01*
X80156920Y-32471641D01*
X80390269Y-32297588D01*
X80585178Y-32081355D01*
X80602656Y-32052014D01*
X80705064Y-32205279D01*
X80924721Y-32424936D01*
X81183011Y-32597519D01*
X81470006Y-32716396D01*
X81774679Y-32777000D01*
X82085321Y-32777000D01*
X82389994Y-32716396D01*
X82676989Y-32597519D01*
X82935279Y-32424936D01*
X83154936Y-32205279D01*
X83200000Y-32137836D01*
X83245064Y-32205279D01*
X83464721Y-32424936D01*
X83723011Y-32597519D01*
X84010006Y-32716396D01*
X84314679Y-32777000D01*
X84625321Y-32777000D01*
X84929994Y-32716396D01*
X85216989Y-32597519D01*
X85475279Y-32424936D01*
X85565930Y-32334285D01*
X85633446Y-32416554D01*
X85744147Y-32507403D01*
X85823840Y-32550000D01*
X85744147Y-32592597D01*
X85633446Y-32683446D01*
X85542597Y-32794147D01*
X85475090Y-32920443D01*
X85433520Y-33057483D01*
X85419483Y-33200000D01*
X85419483Y-34500000D01*
X85433520Y-34642517D01*
X85475090Y-34779557D01*
X85542597Y-34905853D01*
X85633446Y-35016554D01*
X85744147Y-35107403D01*
X85763500Y-35117748D01*
X85683446Y-35183446D01*
X85592597Y-35294147D01*
X85525090Y-35420443D01*
X85483520Y-35557483D01*
X85469483Y-35700000D01*
X85469483Y-37000000D01*
X85483520Y-37142517D01*
X85525090Y-37279557D01*
X85592597Y-37405853D01*
X85683446Y-37516554D01*
X85785126Y-37600000D01*
X85683446Y-37683446D01*
X85592597Y-37794147D01*
X85525090Y-37920443D01*
X85483520Y-38057483D01*
X85469483Y-38200000D01*
X85469483Y-39500000D01*
X85483520Y-39642517D01*
X85525090Y-39779557D01*
X85592597Y-39905853D01*
X85683446Y-40016554D01*
X85794147Y-40107403D01*
X85898840Y-40163363D01*
X85844147Y-40192597D01*
X85733446Y-40283446D01*
X85642597Y-40394147D01*
X85575090Y-40520443D01*
X85533520Y-40657483D01*
X85519483Y-40800000D01*
X85519483Y-41912529D01*
X85405814Y-42005814D01*
X85375220Y-42043093D01*
X82709636Y-44708678D01*
X82671266Y-44716310D01*
X82466165Y-44801266D01*
X82281579Y-44924602D01*
X82124602Y-45081579D01*
X82001266Y-45266165D01*
X81916310Y-45471266D01*
X81873000Y-45689000D01*
X81873000Y-45911000D01*
X81916310Y-46128734D01*
X82001266Y-46333835D01*
X82124602Y-46518421D01*
X82281579Y-46675398D01*
X82466165Y-46798734D01*
X82671266Y-46883690D01*
X82889000Y-46927000D01*
X83111000Y-46927000D01*
X83328734Y-46883690D01*
X83533835Y-46798734D01*
X83718421Y-46675398D01*
X83875398Y-46518421D01*
X83998734Y-46333835D01*
X84083690Y-46128734D01*
X84091322Y-46090364D01*
X85570577Y-44611109D01*
X85583520Y-44742517D01*
X85625090Y-44879557D01*
X85692597Y-45005853D01*
X85783446Y-45116554D01*
X85863500Y-45182252D01*
X85844147Y-45192597D01*
X85733446Y-45283446D01*
X85642597Y-45394147D01*
X85575090Y-45520443D01*
X85533520Y-45657483D01*
X85519483Y-45800000D01*
X85519483Y-47100000D01*
X85533520Y-47242517D01*
X85575090Y-47379557D01*
X85642597Y-47505853D01*
X85733446Y-47616554D01*
X85844147Y-47707403D01*
X85923840Y-47750000D01*
X85844147Y-47792597D01*
X85733446Y-47883446D01*
X85642597Y-47994147D01*
X85575090Y-48120443D01*
X85533520Y-48257483D01*
X85519483Y-48400000D01*
X85519483Y-49700000D01*
X85533520Y-49842517D01*
X85575090Y-49979557D01*
X85642597Y-50105853D01*
X85733446Y-50216554D01*
X85835126Y-50300000D01*
X85733446Y-50383446D01*
X85642597Y-50494147D01*
X85575090Y-50620443D01*
X85533520Y-50757483D01*
X85519483Y-50900000D01*
X85519483Y-52200000D01*
X85533520Y-52342517D01*
X85575090Y-52479557D01*
X85642597Y-52605853D01*
X85733446Y-52716554D01*
X85844147Y-52807403D01*
X85923840Y-52850000D01*
X85844147Y-52892597D01*
X85733446Y-52983446D01*
X85642597Y-53094147D01*
X85575090Y-53220443D01*
X85533520Y-53357483D01*
X85519483Y-53500000D01*
X85519483Y-54800000D01*
X85533520Y-54942517D01*
X85575090Y-55079557D01*
X85642597Y-55205853D01*
X85733446Y-55316554D01*
X85844147Y-55407403D01*
X85970443Y-55474910D01*
X86107483Y-55516480D01*
X86250000Y-55530517D01*
X87750000Y-55530517D01*
X87892517Y-55516480D01*
X88029557Y-55474910D01*
X88155853Y-55407403D01*
X88266554Y-55316554D01*
X88350000Y-55214874D01*
X88433446Y-55316554D01*
X88544147Y-55407403D01*
X88670443Y-55474910D01*
X88807483Y-55516480D01*
X88950000Y-55530517D01*
X90450000Y-55530517D01*
X90592517Y-55516480D01*
X90729557Y-55474910D01*
X90855853Y-55407403D01*
X90966554Y-55316554D01*
X91057403Y-55205853D01*
X91124910Y-55079557D01*
X91148436Y-55002000D01*
X91349374Y-55002000D01*
X91425064Y-55115279D01*
X91644721Y-55334936D01*
X91712164Y-55380000D01*
X91644721Y-55425064D01*
X91425064Y-55644721D01*
X91252481Y-55903011D01*
X91133604Y-56190006D01*
X91073000Y-56494679D01*
X91073000Y-56805321D01*
X91133604Y-57109994D01*
X91252481Y-57396989D01*
X91425064Y-57655279D01*
X91644721Y-57874936D01*
X91712164Y-57920000D01*
X91644721Y-57965064D01*
X91425064Y-58184721D01*
X91252481Y-58443011D01*
X91133604Y-58730006D01*
X91073000Y-59034679D01*
X91073000Y-59345321D01*
X91133604Y-59649994D01*
X91252481Y-59936989D01*
X91425064Y-60195279D01*
X91644721Y-60414936D01*
X91903011Y-60587519D01*
X92190006Y-60706396D01*
X92494679Y-60767000D01*
X92805321Y-60767000D01*
X93109994Y-60706396D01*
X93396989Y-60587519D01*
X93655279Y-60414936D01*
X93748000Y-60322215D01*
X93748000Y-63748000D01*
X62965649Y-63748000D01*
X63100269Y-63647588D01*
X63295178Y-63431355D01*
X63444157Y-63181252D01*
X63541481Y-62906891D01*
X63420814Y-62677000D01*
X62227000Y-62677000D01*
X62227000Y-62697000D01*
X61973000Y-62697000D01*
X61973000Y-62677000D01*
X61953000Y-62677000D01*
X61953000Y-62423000D01*
X61973000Y-62423000D01*
X61973000Y-61229845D01*
X62227000Y-61229845D01*
X62227000Y-62423000D01*
X63420814Y-62423000D01*
X63541481Y-62193109D01*
X63444157Y-61918748D01*
X63295178Y-61668645D01*
X63100269Y-61452412D01*
X62866920Y-61278359D01*
X62604099Y-61153175D01*
X62456890Y-61108524D01*
X62227000Y-61229845D01*
X61973000Y-61229845D01*
X61743110Y-61108524D01*
X61595901Y-61153175D01*
X61333080Y-61278359D01*
X61099731Y-61452412D01*
X61095898Y-61456665D01*
X61084910Y-61420443D01*
X61017403Y-61294147D01*
X60926554Y-61183446D01*
X60815853Y-61092597D01*
X60689557Y-61025090D01*
X60552517Y-60983520D01*
X60410000Y-60969483D01*
X58710000Y-60969483D01*
X58567483Y-60983520D01*
X58430443Y-61025090D01*
X58304147Y-61092597D01*
X58193446Y-61183446D01*
X58102597Y-61294147D01*
X58035090Y-61420443D01*
X57993520Y-61557483D01*
X57979483Y-61700000D01*
X57979483Y-63400000D01*
X57993520Y-63542517D01*
X58035090Y-63679557D01*
X58071674Y-63748000D01*
X53752000Y-63748000D01*
X53752000Y-60075000D01*
X54194483Y-60075000D01*
X54194483Y-61425000D01*
X54208520Y-61567517D01*
X54250090Y-61704557D01*
X54317597Y-61830853D01*
X54408446Y-61941554D01*
X54519147Y-62032403D01*
X54645443Y-62099910D01*
X54782483Y-62141480D01*
X54925000Y-62155517D01*
X56275000Y-62155517D01*
X56417517Y-62141480D01*
X56554557Y-62099910D01*
X56680853Y-62032403D01*
X56791554Y-61941554D01*
X56882403Y-61830853D01*
X56949910Y-61704557D01*
X56991480Y-61567517D01*
X57005517Y-61425000D01*
X57005517Y-60075000D01*
X56991480Y-59932483D01*
X56949910Y-59795443D01*
X56882403Y-59669147D01*
X56791554Y-59558446D01*
X56762124Y-59534293D01*
X56842437Y-59414096D01*
X56948122Y-59158948D01*
X57002000Y-58888085D01*
X57002000Y-58611915D01*
X56948122Y-58341052D01*
X56842437Y-58085904D01*
X56689005Y-57856277D01*
X56582728Y-57750000D01*
X56689005Y-57643723D01*
X56721775Y-57594679D01*
X65133000Y-57594679D01*
X65133000Y-57905321D01*
X65193604Y-58209994D01*
X65312481Y-58496989D01*
X65485064Y-58755279D01*
X65704721Y-58974936D01*
X65963011Y-59147519D01*
X66250006Y-59266396D01*
X66554679Y-59327000D01*
X66865321Y-59327000D01*
X67169994Y-59266396D01*
X67456989Y-59147519D01*
X67715279Y-58974936D01*
X67911818Y-58778397D01*
X68401208Y-58778397D01*
X68478843Y-59027472D01*
X68742883Y-59153371D01*
X69026411Y-59225339D01*
X69318531Y-59240611D01*
X69608019Y-59198599D01*
X69883747Y-59100919D01*
X70021157Y-59027472D01*
X70098792Y-58778397D01*
X69250000Y-57929605D01*
X68401208Y-58778397D01*
X67911818Y-58778397D01*
X67934936Y-58755279D01*
X68070886Y-58551815D01*
X68221603Y-58598792D01*
X69070395Y-57750000D01*
X69429605Y-57750000D01*
X70278397Y-58598792D01*
X70527472Y-58521157D01*
X70653371Y-58257117D01*
X70725339Y-57973589D01*
X70740611Y-57681469D01*
X70728016Y-57594679D01*
X75293000Y-57594679D01*
X75293000Y-57905321D01*
X75353604Y-58209994D01*
X75472481Y-58496989D01*
X75645064Y-58755279D01*
X75864721Y-58974936D01*
X76123011Y-59147519D01*
X76410006Y-59266396D01*
X76714679Y-59327000D01*
X77025321Y-59327000D01*
X77329994Y-59266396D01*
X77616989Y-59147519D01*
X77875279Y-58974936D01*
X78094936Y-58755279D01*
X78140000Y-58687836D01*
X78185064Y-58755279D01*
X78404721Y-58974936D01*
X78663011Y-59147519D01*
X78950006Y-59266396D01*
X79254679Y-59327000D01*
X79565321Y-59327000D01*
X79869994Y-59266396D01*
X80156989Y-59147519D01*
X80415279Y-58974936D01*
X80634936Y-58755279D01*
X80680000Y-58687836D01*
X80725064Y-58755279D01*
X80944721Y-58974936D01*
X81203011Y-59147519D01*
X81490006Y-59266396D01*
X81794679Y-59327000D01*
X82105321Y-59327000D01*
X82409994Y-59266396D01*
X82696989Y-59147519D01*
X82955279Y-58974936D01*
X83151818Y-58778397D01*
X83641208Y-58778397D01*
X83718843Y-59027472D01*
X83982883Y-59153371D01*
X84266411Y-59225339D01*
X84558531Y-59240611D01*
X84848019Y-59198599D01*
X85123747Y-59100919D01*
X85261157Y-59027472D01*
X85338792Y-58778397D01*
X84490000Y-57929605D01*
X83641208Y-58778397D01*
X83151818Y-58778397D01*
X83174936Y-58755279D01*
X83310886Y-58551815D01*
X83461603Y-58598792D01*
X84310395Y-57750000D01*
X84669605Y-57750000D01*
X85518397Y-58598792D01*
X85767472Y-58521157D01*
X85893371Y-58257117D01*
X85965339Y-57973589D01*
X85980611Y-57681469D01*
X85938599Y-57391981D01*
X85840919Y-57116253D01*
X85767472Y-56978843D01*
X85518397Y-56901208D01*
X84669605Y-57750000D01*
X84310395Y-57750000D01*
X83461603Y-56901208D01*
X83310886Y-56948185D01*
X83174936Y-56744721D01*
X83151818Y-56721603D01*
X83641208Y-56721603D01*
X84490000Y-57570395D01*
X85338792Y-56721603D01*
X85261157Y-56472528D01*
X84997117Y-56346629D01*
X84713589Y-56274661D01*
X84421469Y-56259389D01*
X84131981Y-56301401D01*
X83856253Y-56399081D01*
X83718843Y-56472528D01*
X83641208Y-56721603D01*
X83151818Y-56721603D01*
X82955279Y-56525064D01*
X82696989Y-56352481D01*
X82409994Y-56233604D01*
X82105321Y-56173000D01*
X81794679Y-56173000D01*
X81490006Y-56233604D01*
X81203011Y-56352481D01*
X80944721Y-56525064D01*
X80725064Y-56744721D01*
X80680000Y-56812164D01*
X80634936Y-56744721D01*
X80415279Y-56525064D01*
X80156989Y-56352481D01*
X79869994Y-56233604D01*
X79565321Y-56173000D01*
X79254679Y-56173000D01*
X78950006Y-56233604D01*
X78663011Y-56352481D01*
X78404721Y-56525064D01*
X78185064Y-56744721D01*
X78140000Y-56812164D01*
X78094936Y-56744721D01*
X77875279Y-56525064D01*
X77616989Y-56352481D01*
X77329994Y-56233604D01*
X77025321Y-56173000D01*
X76714679Y-56173000D01*
X76410006Y-56233604D01*
X76123011Y-56352481D01*
X75864721Y-56525064D01*
X75645064Y-56744721D01*
X75472481Y-57003011D01*
X75353604Y-57290006D01*
X75293000Y-57594679D01*
X70728016Y-57594679D01*
X70698599Y-57391981D01*
X70600919Y-57116253D01*
X70527472Y-56978843D01*
X70278397Y-56901208D01*
X69429605Y-57750000D01*
X69070395Y-57750000D01*
X68221603Y-56901208D01*
X68070886Y-56948185D01*
X67934936Y-56744721D01*
X67911818Y-56721603D01*
X68401208Y-56721603D01*
X69250000Y-57570395D01*
X70098792Y-56721603D01*
X70021157Y-56472528D01*
X69757117Y-56346629D01*
X69473589Y-56274661D01*
X69181469Y-56259389D01*
X68891981Y-56301401D01*
X68616253Y-56399081D01*
X68478843Y-56472528D01*
X68401208Y-56721603D01*
X67911818Y-56721603D01*
X67715279Y-56525064D01*
X67456989Y-56352481D01*
X67169994Y-56233604D01*
X66865321Y-56173000D01*
X66554679Y-56173000D01*
X66250006Y-56233604D01*
X65963011Y-56352481D01*
X65704721Y-56525064D01*
X65485064Y-56744721D01*
X65312481Y-57003011D01*
X65193604Y-57290006D01*
X65133000Y-57594679D01*
X56721775Y-57594679D01*
X56842437Y-57414096D01*
X56948122Y-57158948D01*
X57002000Y-56888085D01*
X57002000Y-56611915D01*
X56948122Y-56341052D01*
X56842437Y-56085904D01*
X56689005Y-55856277D01*
X56493723Y-55660995D01*
X56264096Y-55507563D01*
X56008948Y-55401878D01*
X55738085Y-55348000D01*
X55461915Y-55348000D01*
X55191052Y-55401878D01*
X54935904Y-55507563D01*
X54706277Y-55660995D01*
X54510995Y-55856277D01*
X54357563Y-56085904D01*
X54251878Y-56341052D01*
X54198000Y-56611915D01*
X54198000Y-56888085D01*
X54251878Y-57158948D01*
X54357563Y-57414096D01*
X54510995Y-57643723D01*
X54617272Y-57750000D01*
X54510995Y-57856277D01*
X54357563Y-58085904D01*
X54251878Y-58341052D01*
X54198000Y-58611915D01*
X54198000Y-58888085D01*
X54251878Y-59158948D01*
X54357563Y-59414096D01*
X54437876Y-59534293D01*
X54408446Y-59558446D01*
X54317597Y-59669147D01*
X54250090Y-59795443D01*
X54208520Y-59932483D01*
X54194483Y-60075000D01*
X53752000Y-60075000D01*
X53752000Y-29752000D01*
X54966654Y-29752000D01*
X54879327Y-29788172D01*
G37*
G04 #@! TD.AperFunction*
M02*
