%FSLAX45Y45*%
G04 Gerber Fmt 4.5, Leading zero omitted, Abs format (unit mm)*
G04 Created by KiCad (PCBNEW (5.1.10-1-10_14)) date 2022-02-17 23:12:56*
%MOMM*%
%LPD*%
G01*
G04 APERTURE LIST*
%TA.AperFunction,Profile*%
%ADD10C,0.050000*%
%TD*%
%ADD11C,0.200000*%
%ADD12C,0.300000*%
G04 APERTURE END LIST*
D10*
X9450000Y-2900000D02*
X5300000Y-2900000D01*
X9450000Y-6450000D02*
X9450000Y-2900000D01*
X5300000Y-6450000D02*
X9450000Y-6450000D01*
X5300000Y-2900000D02*
X5300000Y-6450000D01*
D11*
D12*
X5583928Y-6918214D02*
X5583928Y-6618214D01*
X5655357Y-6618214D01*
X5698214Y-6632500D01*
X5726786Y-6661071D01*
X5741071Y-6689643D01*
X5755357Y-6746786D01*
X5755357Y-6789643D01*
X5741071Y-6846786D01*
X5726786Y-6875357D01*
X5698214Y-6903929D01*
X5655357Y-6918214D01*
X5583928Y-6918214D01*
X5883928Y-6918214D02*
X5883928Y-6718214D01*
X5883928Y-6775357D02*
X5898214Y-6746786D01*
X5912500Y-6732500D01*
X5941071Y-6718214D01*
X5969643Y-6718214D01*
X6069643Y-6918214D02*
X6069643Y-6718214D01*
X6069643Y-6618214D02*
X6055357Y-6632500D01*
X6069643Y-6646786D01*
X6083928Y-6632500D01*
X6069643Y-6618214D01*
X6069643Y-6646786D01*
X6255357Y-6918214D02*
X6226786Y-6903929D01*
X6212500Y-6875357D01*
X6212500Y-6618214D01*
X6412500Y-6918214D02*
X6383928Y-6903929D01*
X6369643Y-6875357D01*
X6369643Y-6618214D01*
X6755357Y-6918214D02*
X6755357Y-6618214D01*
X6855357Y-6832500D01*
X6955357Y-6618214D01*
X6955357Y-6918214D01*
X7226786Y-6918214D02*
X7226786Y-6761071D01*
X7212500Y-6732500D01*
X7183928Y-6718214D01*
X7126786Y-6718214D01*
X7098214Y-6732500D01*
X7226786Y-6903929D02*
X7198214Y-6918214D01*
X7126786Y-6918214D01*
X7098214Y-6903929D01*
X7083928Y-6875357D01*
X7083928Y-6846786D01*
X7098214Y-6818214D01*
X7126786Y-6803929D01*
X7198214Y-6803929D01*
X7226786Y-6789643D01*
X7369643Y-6718214D02*
X7369643Y-7018214D01*
X7369643Y-6732500D02*
X7398214Y-6718214D01*
X7455357Y-6718214D01*
X7483928Y-6732500D01*
X7498214Y-6746786D01*
X7512500Y-6775357D01*
X7512500Y-6861071D01*
X7498214Y-6889643D01*
X7483928Y-6903929D01*
X7455357Y-6918214D01*
X7398214Y-6918214D01*
X7369643Y-6903929D01*
X7641071Y-6889643D02*
X7655357Y-6903929D01*
X7641071Y-6918214D01*
X7626786Y-6903929D01*
X7641071Y-6889643D01*
X7641071Y-6918214D01*
X7641071Y-6732500D02*
X7655357Y-6746786D01*
X7641071Y-6761071D01*
X7626786Y-6746786D01*
X7641071Y-6732500D01*
X7641071Y-6761071D01*
M02*
