G04 #@! TF.GenerationSoftware,KiCad,Pcbnew,(5.1.10-1-10_14)*
G04 #@! TF.CreationDate,2022-02-17T23:12:15-06:00*
G04 #@! TF.ProjectId,OpenEstim++,4f70656e-4573-4746-996d-2b2b2e6b6963,rev?*
G04 #@! TF.SameCoordinates,Original*
G04 #@! TF.FileFunction,Legend,Bot*
G04 #@! TF.FilePolarity,Positive*
%FSLAX46Y46*%
G04 Gerber Fmt 4.6, Leading zero omitted, Abs format (unit mm)*
G04 Created by KiCad (PCBNEW (5.1.10-1-10_14)) date 2022-02-17 23:12:15*
%MOMM*%
%LPD*%
G01*
G04 APERTURE LIST*
%ADD10C,0.120000*%
%ADD11C,0.150000*%
%ADD12C,1.800000*%
%ADD13R,1.350000X1.350000*%
%ADD14O,1.350000X1.350000*%
%ADD15R,1.500000X1.300000*%
%ADD16R,1.700000X1.700000*%
%ADD17O,1.700000X1.700000*%
%ADD18C,1.700000*%
G04 APERTURE END LIST*
D10*
X88950000Y-53270000D02*
X87750000Y-53270000D01*
X87750000Y-55030000D02*
X88950000Y-55030000D01*
X88950000Y-50670000D02*
X87750000Y-50670000D01*
X87750000Y-52430000D02*
X88950000Y-52430000D01*
X88950000Y-48170000D02*
X87750000Y-48170000D01*
X87750000Y-49930000D02*
X88950000Y-49930000D01*
X88950000Y-45570000D02*
X87750000Y-45570000D01*
X87750000Y-47330000D02*
X88950000Y-47330000D01*
X89000000Y-43070000D02*
X87800000Y-43070000D01*
X87800000Y-44830000D02*
X89000000Y-44830000D01*
X88950000Y-40570000D02*
X87750000Y-40570000D01*
X87750000Y-42330000D02*
X88950000Y-42330000D01*
X88900000Y-37970000D02*
X87700000Y-37970000D01*
X87700000Y-39730000D02*
X88900000Y-39730000D01*
X88900000Y-35470000D02*
X87700000Y-35470000D01*
X87700000Y-37230000D02*
X88900000Y-37230000D01*
X88850000Y-32970000D02*
X87650000Y-32970000D01*
X87650000Y-34730000D02*
X88850000Y-34730000D01*
X88850000Y-30370000D02*
X87650000Y-30370000D01*
X87650000Y-32130000D02*
X88850000Y-32130000D01*
D11*
X88992857Y-56302380D02*
X89326190Y-55826190D01*
X89564285Y-56302380D02*
X89564285Y-55302380D01*
X89183333Y-55302380D01*
X89088095Y-55350000D01*
X89040476Y-55397619D01*
X88992857Y-55492857D01*
X88992857Y-55635714D01*
X89040476Y-55730952D01*
X89088095Y-55778571D01*
X89183333Y-55826190D01*
X89564285Y-55826190D01*
X88040476Y-56302380D02*
X88611904Y-56302380D01*
X88326190Y-56302380D02*
X88326190Y-55302380D01*
X88421428Y-55445238D01*
X88516666Y-55540476D01*
X88611904Y-55588095D01*
X87183333Y-55302380D02*
X87373809Y-55302380D01*
X87469047Y-55350000D01*
X87516666Y-55397619D01*
X87611904Y-55540476D01*
X87659523Y-55730952D01*
X87659523Y-56111904D01*
X87611904Y-56207142D01*
X87564285Y-56254761D01*
X87469047Y-56302380D01*
X87278571Y-56302380D01*
X87183333Y-56254761D01*
X87135714Y-56207142D01*
X87088095Y-56111904D01*
X87088095Y-55873809D01*
X87135714Y-55778571D01*
X87183333Y-55730952D01*
X87278571Y-55683333D01*
X87469047Y-55683333D01*
X87564285Y-55730952D01*
X87611904Y-55778571D01*
X87659523Y-55873809D01*
X88992857Y-53702380D02*
X89326190Y-53226190D01*
X89564285Y-53702380D02*
X89564285Y-52702380D01*
X89183333Y-52702380D01*
X89088095Y-52750000D01*
X89040476Y-52797619D01*
X88992857Y-52892857D01*
X88992857Y-53035714D01*
X89040476Y-53130952D01*
X89088095Y-53178571D01*
X89183333Y-53226190D01*
X89564285Y-53226190D01*
X88040476Y-53702380D02*
X88611904Y-53702380D01*
X88326190Y-53702380D02*
X88326190Y-52702380D01*
X88421428Y-52845238D01*
X88516666Y-52940476D01*
X88611904Y-52988095D01*
X87135714Y-52702380D02*
X87611904Y-52702380D01*
X87659523Y-53178571D01*
X87611904Y-53130952D01*
X87516666Y-53083333D01*
X87278571Y-53083333D01*
X87183333Y-53130952D01*
X87135714Y-53178571D01*
X87088095Y-53273809D01*
X87088095Y-53511904D01*
X87135714Y-53607142D01*
X87183333Y-53654761D01*
X87278571Y-53702380D01*
X87516666Y-53702380D01*
X87611904Y-53654761D01*
X87659523Y-53607142D01*
X88992857Y-51202380D02*
X89326190Y-50726190D01*
X89564285Y-51202380D02*
X89564285Y-50202380D01*
X89183333Y-50202380D01*
X89088095Y-50250000D01*
X89040476Y-50297619D01*
X88992857Y-50392857D01*
X88992857Y-50535714D01*
X89040476Y-50630952D01*
X89088095Y-50678571D01*
X89183333Y-50726190D01*
X89564285Y-50726190D01*
X88040476Y-51202380D02*
X88611904Y-51202380D01*
X88326190Y-51202380D02*
X88326190Y-50202380D01*
X88421428Y-50345238D01*
X88516666Y-50440476D01*
X88611904Y-50488095D01*
X87183333Y-50535714D02*
X87183333Y-51202380D01*
X87421428Y-50154761D02*
X87659523Y-50869047D01*
X87040476Y-50869047D01*
X88992857Y-48602380D02*
X89326190Y-48126190D01*
X89564285Y-48602380D02*
X89564285Y-47602380D01*
X89183333Y-47602380D01*
X89088095Y-47650000D01*
X89040476Y-47697619D01*
X88992857Y-47792857D01*
X88992857Y-47935714D01*
X89040476Y-48030952D01*
X89088095Y-48078571D01*
X89183333Y-48126190D01*
X89564285Y-48126190D01*
X88040476Y-48602380D02*
X88611904Y-48602380D01*
X88326190Y-48602380D02*
X88326190Y-47602380D01*
X88421428Y-47745238D01*
X88516666Y-47840476D01*
X88611904Y-47888095D01*
X87707142Y-47602380D02*
X87088095Y-47602380D01*
X87421428Y-47983333D01*
X87278571Y-47983333D01*
X87183333Y-48030952D01*
X87135714Y-48078571D01*
X87088095Y-48173809D01*
X87088095Y-48411904D01*
X87135714Y-48507142D01*
X87183333Y-48554761D01*
X87278571Y-48602380D01*
X87564285Y-48602380D01*
X87659523Y-48554761D01*
X87707142Y-48507142D01*
X89042857Y-46102380D02*
X89376190Y-45626190D01*
X89614285Y-46102380D02*
X89614285Y-45102380D01*
X89233333Y-45102380D01*
X89138095Y-45150000D01*
X89090476Y-45197619D01*
X89042857Y-45292857D01*
X89042857Y-45435714D01*
X89090476Y-45530952D01*
X89138095Y-45578571D01*
X89233333Y-45626190D01*
X89614285Y-45626190D01*
X88090476Y-46102380D02*
X88661904Y-46102380D01*
X88376190Y-46102380D02*
X88376190Y-45102380D01*
X88471428Y-45245238D01*
X88566666Y-45340476D01*
X88661904Y-45388095D01*
X87709523Y-45197619D02*
X87661904Y-45150000D01*
X87566666Y-45102380D01*
X87328571Y-45102380D01*
X87233333Y-45150000D01*
X87185714Y-45197619D01*
X87138095Y-45292857D01*
X87138095Y-45388095D01*
X87185714Y-45530952D01*
X87757142Y-46102380D01*
X87138095Y-46102380D01*
X88992857Y-43602380D02*
X89326190Y-43126190D01*
X89564285Y-43602380D02*
X89564285Y-42602380D01*
X89183333Y-42602380D01*
X89088095Y-42650000D01*
X89040476Y-42697619D01*
X88992857Y-42792857D01*
X88992857Y-42935714D01*
X89040476Y-43030952D01*
X89088095Y-43078571D01*
X89183333Y-43126190D01*
X89564285Y-43126190D01*
X88040476Y-43602380D02*
X88611904Y-43602380D01*
X88326190Y-43602380D02*
X88326190Y-42602380D01*
X88421428Y-42745238D01*
X88516666Y-42840476D01*
X88611904Y-42888095D01*
X87088095Y-43602380D02*
X87659523Y-43602380D01*
X87373809Y-43602380D02*
X87373809Y-42602380D01*
X87469047Y-42745238D01*
X87564285Y-42840476D01*
X87659523Y-42888095D01*
X88942857Y-41002380D02*
X89276190Y-40526190D01*
X89514285Y-41002380D02*
X89514285Y-40002380D01*
X89133333Y-40002380D01*
X89038095Y-40050000D01*
X88990476Y-40097619D01*
X88942857Y-40192857D01*
X88942857Y-40335714D01*
X88990476Y-40430952D01*
X89038095Y-40478571D01*
X89133333Y-40526190D01*
X89514285Y-40526190D01*
X87990476Y-41002380D02*
X88561904Y-41002380D01*
X88276190Y-41002380D02*
X88276190Y-40002380D01*
X88371428Y-40145238D01*
X88466666Y-40240476D01*
X88561904Y-40288095D01*
X87371428Y-40002380D02*
X87276190Y-40002380D01*
X87180952Y-40050000D01*
X87133333Y-40097619D01*
X87085714Y-40192857D01*
X87038095Y-40383333D01*
X87038095Y-40621428D01*
X87085714Y-40811904D01*
X87133333Y-40907142D01*
X87180952Y-40954761D01*
X87276190Y-41002380D01*
X87371428Y-41002380D01*
X87466666Y-40954761D01*
X87514285Y-40907142D01*
X87561904Y-40811904D01*
X87609523Y-40621428D01*
X87609523Y-40383333D01*
X87561904Y-40192857D01*
X87514285Y-40097619D01*
X87466666Y-40050000D01*
X87371428Y-40002380D01*
X88466666Y-38502380D02*
X88800000Y-38026190D01*
X89038095Y-38502380D02*
X89038095Y-37502380D01*
X88657142Y-37502380D01*
X88561904Y-37550000D01*
X88514285Y-37597619D01*
X88466666Y-37692857D01*
X88466666Y-37835714D01*
X88514285Y-37930952D01*
X88561904Y-37978571D01*
X88657142Y-38026190D01*
X89038095Y-38026190D01*
X87990476Y-38502380D02*
X87800000Y-38502380D01*
X87704761Y-38454761D01*
X87657142Y-38407142D01*
X87561904Y-38264285D01*
X87514285Y-38073809D01*
X87514285Y-37692857D01*
X87561904Y-37597619D01*
X87609523Y-37550000D01*
X87704761Y-37502380D01*
X87895238Y-37502380D01*
X87990476Y-37550000D01*
X88038095Y-37597619D01*
X88085714Y-37692857D01*
X88085714Y-37930952D01*
X88038095Y-38026190D01*
X87990476Y-38073809D01*
X87895238Y-38121428D01*
X87704761Y-38121428D01*
X87609523Y-38073809D01*
X87561904Y-38026190D01*
X87514285Y-37930952D01*
X88416666Y-36002380D02*
X88750000Y-35526190D01*
X88988095Y-36002380D02*
X88988095Y-35002380D01*
X88607142Y-35002380D01*
X88511904Y-35050000D01*
X88464285Y-35097619D01*
X88416666Y-35192857D01*
X88416666Y-35335714D01*
X88464285Y-35430952D01*
X88511904Y-35478571D01*
X88607142Y-35526190D01*
X88988095Y-35526190D01*
X87845238Y-35430952D02*
X87940476Y-35383333D01*
X87988095Y-35335714D01*
X88035714Y-35240476D01*
X88035714Y-35192857D01*
X87988095Y-35097619D01*
X87940476Y-35050000D01*
X87845238Y-35002380D01*
X87654761Y-35002380D01*
X87559523Y-35050000D01*
X87511904Y-35097619D01*
X87464285Y-35192857D01*
X87464285Y-35240476D01*
X87511904Y-35335714D01*
X87559523Y-35383333D01*
X87654761Y-35430952D01*
X87845238Y-35430952D01*
X87940476Y-35478571D01*
X87988095Y-35526190D01*
X88035714Y-35621428D01*
X88035714Y-35811904D01*
X87988095Y-35907142D01*
X87940476Y-35954761D01*
X87845238Y-36002380D01*
X87654761Y-36002380D01*
X87559523Y-35954761D01*
X87511904Y-35907142D01*
X87464285Y-35811904D01*
X87464285Y-35621428D01*
X87511904Y-35526190D01*
X87559523Y-35478571D01*
X87654761Y-35430952D01*
X88416666Y-33402380D02*
X88750000Y-32926190D01*
X88988095Y-33402380D02*
X88988095Y-32402380D01*
X88607142Y-32402380D01*
X88511904Y-32450000D01*
X88464285Y-32497619D01*
X88416666Y-32592857D01*
X88416666Y-32735714D01*
X88464285Y-32830952D01*
X88511904Y-32878571D01*
X88607142Y-32926190D01*
X88988095Y-32926190D01*
X88083333Y-32402380D02*
X87416666Y-32402380D01*
X87845238Y-33402380D01*
%LPC*%
D12*
X55650000Y-46470000D03*
X71650000Y-46470000D03*
X55650000Y-43930000D03*
X71650000Y-43930000D03*
X55650000Y-41390000D03*
X71650000Y-41390000D03*
X55650000Y-38850000D03*
X71650000Y-38850000D03*
X55650000Y-36310000D03*
X71650000Y-36310000D03*
X55650000Y-33770000D03*
X71650000Y-33770000D03*
X55650000Y-31230000D03*
X71650000Y-31230000D03*
D13*
X55600000Y-60750000D03*
D14*
X55600000Y-58750000D03*
X55600000Y-56750000D03*
D15*
X87000000Y-54150000D03*
X89700000Y-54150000D03*
X87000000Y-51550000D03*
X89700000Y-51550000D03*
X87000000Y-49050000D03*
X89700000Y-49050000D03*
X87000000Y-46450000D03*
X89700000Y-46450000D03*
X87050000Y-43950000D03*
X89750000Y-43950000D03*
X87000000Y-41450000D03*
X89700000Y-41450000D03*
X86950000Y-38850000D03*
X89650000Y-38850000D03*
X86950000Y-36350000D03*
X89650000Y-36350000D03*
X86900000Y-33850000D03*
X89600000Y-33850000D03*
X86900000Y-31250000D03*
X89600000Y-31250000D03*
D16*
X76850000Y-31200000D03*
D17*
X79390000Y-31200000D03*
X81930000Y-31200000D03*
X84470000Y-31200000D03*
D16*
X92650000Y-31250000D03*
D17*
X92650000Y-33790000D03*
X92650000Y-36330000D03*
X92650000Y-38870000D03*
X92650000Y-41410000D03*
X92650000Y-43950000D03*
X92650000Y-46490000D03*
X92650000Y-49030000D03*
X92650000Y-51570000D03*
X92650000Y-54110000D03*
X92650000Y-56650000D03*
X92650000Y-59190000D03*
X62100000Y-62550000D03*
D16*
X59560000Y-62550000D03*
X74200000Y-49550000D03*
D17*
X71660000Y-49550000D03*
D18*
X84490000Y-57750000D03*
X81950000Y-57750000D03*
X79410000Y-57750000D03*
X76870000Y-57750000D03*
X69250000Y-57750000D03*
X66710000Y-57750000D03*
M02*
