G04 #@! TF.GenerationSoftware,KiCad,Pcbnew,(5.1.10-1-10_14)*
G04 #@! TF.CreationDate,2022-02-17T23:12:15-06:00*
G04 #@! TF.ProjectId,OpenEstim++,4f70656e-4573-4746-996d-2b2b2e6b6963,rev?*
G04 #@! TF.SameCoordinates,Original*
G04 #@! TF.FileFunction,Legend,Top*
G04 #@! TF.FilePolarity,Positive*
%FSLAX46Y46*%
G04 Gerber Fmt 4.6, Leading zero omitted, Abs format (unit mm)*
G04 Created by KiCad (PCBNEW (5.1.10-1-10_14)) date 2022-02-17 23:12:15*
%MOMM*%
%LPD*%
G01*
G04 APERTURE LIST*
%ADD10C,0.120000*%
%ADD11C,0.150000*%
%ADD12R,1.500000X1.300000*%
%ADD13R,1.450000X0.450000*%
%ADD14C,1.800000*%
%ADD15R,1.350000X1.350000*%
%ADD16O,1.350000X1.350000*%
%ADD17R,1.300000X1.500000*%
%ADD18R,1.700000X1.700000*%
%ADD19O,1.700000X1.700000*%
%ADD20R,0.900000X1.200000*%
%ADD21R,2.000000X2.500000*%
%ADD22R,1.000000X2.500000*%
%ADD23R,2.000000X4.000000*%
%ADD24C,0.100000*%
%ADD25R,2.500000X1.000000*%
%ADD26R,4.000000X2.000000*%
%ADD27C,1.700000*%
G04 APERTURE END LIST*
D10*
X60300000Y-54530000D02*
X59100000Y-54530000D01*
X59100000Y-52770000D02*
X60300000Y-52770000D01*
D11*
X60575000Y-34775000D02*
X60575000Y-34950000D01*
X63925000Y-34775000D02*
X63925000Y-35025000D01*
X63925000Y-38125000D02*
X63925000Y-37875000D01*
X60575000Y-38125000D02*
X60575000Y-37875000D01*
X60575000Y-34775000D02*
X63925000Y-34775000D01*
X60575000Y-38125000D02*
X63925000Y-38125000D01*
X60575000Y-34950000D02*
X59325000Y-34950000D01*
D10*
X54250000Y-29830000D02*
X54250000Y-47870000D01*
X54250000Y-47870000D02*
X73050000Y-47870000D01*
X73050000Y-47870000D02*
X73050000Y-29830000D01*
X73050000Y-29830000D02*
X66783333Y-29830000D01*
X66783333Y-29830000D02*
X66783333Y-30190000D01*
X66783333Y-30190000D02*
X60516667Y-30190000D01*
X60516667Y-30190000D02*
X60516667Y-29830000D01*
X60516667Y-29830000D02*
X54250000Y-29830000D01*
X56660000Y-55690000D02*
X54540000Y-55690000D01*
X56660000Y-59750000D02*
X56660000Y-55690000D01*
X54540000Y-59750000D02*
X54540000Y-55690000D01*
X56660000Y-59750000D02*
X54540000Y-59750000D01*
X56660000Y-60750000D02*
X56660000Y-61810000D01*
X56660000Y-61810000D02*
X55600000Y-61810000D01*
X72000000Y-51720000D02*
X73200000Y-51720000D01*
X73200000Y-53480000D02*
X72000000Y-53480000D01*
X69730000Y-35600000D02*
X69730000Y-36800000D01*
X67970000Y-36800000D02*
X67970000Y-35600000D01*
X64680000Y-52700000D02*
X64680000Y-53900000D01*
X62920000Y-53900000D02*
X62920000Y-52700000D01*
X85800000Y-32530000D02*
X85800000Y-29870000D01*
X78120000Y-32530000D02*
X85800000Y-32530000D01*
X78120000Y-29870000D02*
X85800000Y-29870000D01*
X78120000Y-32530000D02*
X78120000Y-29870000D01*
X76850000Y-32530000D02*
X75520000Y-32530000D01*
X75520000Y-32530000D02*
X75520000Y-31200000D01*
X91320000Y-60520000D02*
X93980000Y-60520000D01*
X91320000Y-32520000D02*
X91320000Y-60520000D01*
X93980000Y-32520000D02*
X93980000Y-60520000D01*
X91320000Y-32520000D02*
X93980000Y-32520000D01*
X91320000Y-31250000D02*
X91320000Y-29920000D01*
X91320000Y-29920000D02*
X92650000Y-29920000D01*
X58230000Y-63880000D02*
X58230000Y-62550000D01*
X59560000Y-63880000D02*
X58230000Y-63880000D01*
X60830000Y-63880000D02*
X60830000Y-61220000D01*
X60830000Y-61220000D02*
X63430000Y-61220000D01*
X60830000Y-63880000D02*
X63430000Y-63880000D01*
X63430000Y-63880000D02*
X63430000Y-61220000D01*
X70330000Y-48220000D02*
X70330000Y-50880000D01*
X72930000Y-48220000D02*
X70330000Y-48220000D01*
X72930000Y-50880000D02*
X70330000Y-50880000D01*
X72930000Y-48220000D02*
X72930000Y-50880000D01*
X74200000Y-48220000D02*
X75530000Y-48220000D01*
X75530000Y-48220000D02*
X75530000Y-49550000D01*
X55600000Y-50250000D02*
X54500000Y-50250000D01*
X54500000Y-50250000D02*
X54500000Y-52850000D01*
X55600000Y-50250000D02*
X55600000Y-52850000D01*
X61250000Y-33730000D02*
X63250000Y-33730000D01*
X63250000Y-30770000D02*
X61250000Y-30770000D01*
X68650000Y-48320000D02*
X69850000Y-48320000D01*
X69850000Y-48320000D02*
X69850000Y-51020000D01*
X65050000Y-52320000D02*
X65050000Y-48320000D01*
X65050000Y-48320000D02*
X66250000Y-48320000D01*
X62900000Y-42100000D02*
X62900000Y-40900000D01*
X62900000Y-40900000D02*
X65600000Y-40900000D01*
X66900000Y-45700000D02*
X62900000Y-45700000D01*
X62900000Y-45700000D02*
X62900000Y-44500000D01*
X61550000Y-47120000D02*
X62750000Y-47120000D01*
X62750000Y-47120000D02*
X62750000Y-49820000D01*
X57950000Y-51120000D02*
X57950000Y-47120000D01*
X57950000Y-47120000D02*
X59150000Y-47120000D01*
D11*
X64424000Y-56226000D02*
X64424000Y-63846000D01*
X64424000Y-63846000D02*
X86522000Y-63846000D01*
X86522000Y-63846000D02*
X86522000Y-55972000D01*
X86522000Y-55972000D02*
X64424000Y-55972000D01*
X64424000Y-55972000D02*
X64424000Y-56226000D01*
X82950000Y-40723476D02*
X82631802Y-41041674D01*
X88076524Y-45850000D02*
X87705293Y-46221231D01*
X82950000Y-50976524D02*
X83321231Y-50605293D01*
X77823476Y-45850000D02*
X78194707Y-45478769D01*
X82950000Y-40723476D02*
X83321231Y-41094707D01*
X77823476Y-45850000D02*
X78194707Y-46221231D01*
X82950000Y-50976524D02*
X82578769Y-50605293D01*
X88076524Y-45850000D02*
X87705293Y-45478769D01*
X82631802Y-41041674D02*
X81659530Y-40069402D01*
X59533333Y-55802380D02*
X59200000Y-55326190D01*
X58961904Y-55802380D02*
X58961904Y-54802380D01*
X59342857Y-54802380D01*
X59438095Y-54850000D01*
X59485714Y-54897619D01*
X59533333Y-54992857D01*
X59533333Y-55135714D01*
X59485714Y-55230952D01*
X59438095Y-55278571D01*
X59342857Y-55326190D01*
X58961904Y-55326190D01*
X60485714Y-55802380D02*
X59914285Y-55802380D01*
X60200000Y-55802380D02*
X60200000Y-54802380D01*
X60104761Y-54945238D01*
X60009523Y-55040476D01*
X59914285Y-55088095D01*
X61488095Y-33302380D02*
X61488095Y-34111904D01*
X61535714Y-34207142D01*
X61583333Y-34254761D01*
X61678571Y-34302380D01*
X61869047Y-34302380D01*
X61964285Y-34254761D01*
X62011904Y-34207142D01*
X62059523Y-34111904D01*
X62059523Y-33302380D01*
X63011904Y-33302380D02*
X62535714Y-33302380D01*
X62488095Y-33778571D01*
X62535714Y-33730952D01*
X62630952Y-33683333D01*
X62869047Y-33683333D01*
X62964285Y-33730952D01*
X63011904Y-33778571D01*
X63059523Y-33873809D01*
X63059523Y-34111904D01*
X63011904Y-34207142D01*
X62964285Y-34254761D01*
X62869047Y-34302380D01*
X62630952Y-34302380D01*
X62535714Y-34254761D01*
X62488095Y-34207142D01*
X57013095Y-30177380D02*
X57013095Y-30986904D01*
X57060714Y-31082142D01*
X57108333Y-31129761D01*
X57203571Y-31177380D01*
X57394047Y-31177380D01*
X57489285Y-31129761D01*
X57536904Y-31082142D01*
X57584523Y-30986904D01*
X57584523Y-30177380D01*
X58489285Y-30510714D02*
X58489285Y-31177380D01*
X58251190Y-30129761D02*
X58013095Y-30844047D01*
X58632142Y-30844047D01*
X54266666Y-63214761D02*
X54409523Y-63262380D01*
X54647619Y-63262380D01*
X54742857Y-63214761D01*
X54790476Y-63167142D01*
X54838095Y-63071904D01*
X54838095Y-62976666D01*
X54790476Y-62881428D01*
X54742857Y-62833809D01*
X54647619Y-62786190D01*
X54457142Y-62738571D01*
X54361904Y-62690952D01*
X54314285Y-62643333D01*
X54266666Y-62548095D01*
X54266666Y-62452857D01*
X54314285Y-62357619D01*
X54361904Y-62310000D01*
X54457142Y-62262380D01*
X54695238Y-62262380D01*
X54838095Y-62310000D01*
X55171428Y-62262380D02*
X55409523Y-63262380D01*
X55600000Y-62548095D01*
X55790476Y-63262380D01*
X56028571Y-62262380D01*
X56933333Y-63262380D02*
X56361904Y-63262380D01*
X56647619Y-63262380D02*
X56647619Y-62262380D01*
X56552380Y-62405238D01*
X56457142Y-62500476D01*
X56361904Y-62548095D01*
X72433333Y-54752380D02*
X72100000Y-54276190D01*
X71861904Y-54752380D02*
X71861904Y-53752380D01*
X72242857Y-53752380D01*
X72338095Y-53800000D01*
X72385714Y-53847619D01*
X72433333Y-53942857D01*
X72433333Y-54085714D01*
X72385714Y-54180952D01*
X72338095Y-54228571D01*
X72242857Y-54276190D01*
X71861904Y-54276190D01*
X73290476Y-54085714D02*
X73290476Y-54752380D01*
X73052380Y-53704761D02*
X72814285Y-54419047D01*
X73433333Y-54419047D01*
X67602380Y-36366666D02*
X67126190Y-36700000D01*
X67602380Y-36938095D02*
X66602380Y-36938095D01*
X66602380Y-36557142D01*
X66650000Y-36461904D01*
X66697619Y-36414285D01*
X66792857Y-36366666D01*
X66935714Y-36366666D01*
X67030952Y-36414285D01*
X67078571Y-36461904D01*
X67126190Y-36557142D01*
X67126190Y-36938095D01*
X66602380Y-36033333D02*
X66602380Y-35414285D01*
X66983333Y-35747619D01*
X66983333Y-35604761D01*
X67030952Y-35509523D01*
X67078571Y-35461904D01*
X67173809Y-35414285D01*
X67411904Y-35414285D01*
X67507142Y-35461904D01*
X67554761Y-35509523D01*
X67602380Y-35604761D01*
X67602380Y-35890476D01*
X67554761Y-35985714D01*
X67507142Y-36033333D01*
X62552380Y-53466666D02*
X62076190Y-53800000D01*
X62552380Y-54038095D02*
X61552380Y-54038095D01*
X61552380Y-53657142D01*
X61600000Y-53561904D01*
X61647619Y-53514285D01*
X61742857Y-53466666D01*
X61885714Y-53466666D01*
X61980952Y-53514285D01*
X62028571Y-53561904D01*
X62076190Y-53657142D01*
X62076190Y-54038095D01*
X61647619Y-53085714D02*
X61600000Y-53038095D01*
X61552380Y-52942857D01*
X61552380Y-52704761D01*
X61600000Y-52609523D01*
X61647619Y-52561904D01*
X61742857Y-52514285D01*
X61838095Y-52514285D01*
X61980952Y-52561904D01*
X62552380Y-53133333D01*
X62552380Y-52514285D01*
X73972380Y-31533333D02*
X74686666Y-31533333D01*
X74829523Y-31580952D01*
X74924761Y-31676190D01*
X74972380Y-31819047D01*
X74972380Y-31914285D01*
X73972380Y-31152380D02*
X73972380Y-30533333D01*
X74353333Y-30866666D01*
X74353333Y-30723809D01*
X74400952Y-30628571D01*
X74448571Y-30580952D01*
X74543809Y-30533333D01*
X74781904Y-30533333D01*
X74877142Y-30580952D01*
X74924761Y-30628571D01*
X74972380Y-30723809D01*
X74972380Y-31009523D01*
X74924761Y-31104761D01*
X74877142Y-31152380D01*
X92316666Y-28372380D02*
X92316666Y-29086666D01*
X92269047Y-29229523D01*
X92173809Y-29324761D01*
X92030952Y-29372380D01*
X91935714Y-29372380D01*
X92745238Y-28467619D02*
X92792857Y-28420000D01*
X92888095Y-28372380D01*
X93126190Y-28372380D01*
X93221428Y-28420000D01*
X93269047Y-28467619D01*
X93316666Y-28562857D01*
X93316666Y-28658095D01*
X93269047Y-28800952D01*
X92697619Y-29372380D01*
X93316666Y-29372380D01*
X56682380Y-62883333D02*
X57396666Y-62883333D01*
X57539523Y-62930952D01*
X57634761Y-63026190D01*
X57682380Y-63169047D01*
X57682380Y-63264285D01*
X57682380Y-61883333D02*
X57682380Y-62454761D01*
X57682380Y-62169047D02*
X56682380Y-62169047D01*
X56825238Y-62264285D01*
X56920476Y-62359523D01*
X56968095Y-62454761D01*
X76982380Y-50288095D02*
X75982380Y-50288095D01*
X75982380Y-50050000D01*
X76030000Y-49907142D01*
X76125238Y-49811904D01*
X76220476Y-49764285D01*
X76410952Y-49716666D01*
X76553809Y-49716666D01*
X76744285Y-49764285D01*
X76839523Y-49811904D01*
X76934761Y-49907142D01*
X76982380Y-50050000D01*
X76982380Y-50288095D01*
X76077619Y-49335714D02*
X76030000Y-49288095D01*
X75982380Y-49192857D01*
X75982380Y-48954761D01*
X76030000Y-48859523D01*
X76077619Y-48811904D01*
X76172857Y-48764285D01*
X76268095Y-48764285D01*
X76410952Y-48811904D01*
X76982380Y-49383333D01*
X76982380Y-48764285D01*
X56952380Y-52788095D02*
X55952380Y-52788095D01*
X55952380Y-52550000D01*
X56000000Y-52407142D01*
X56095238Y-52311904D01*
X56190476Y-52264285D01*
X56380952Y-52216666D01*
X56523809Y-52216666D01*
X56714285Y-52264285D01*
X56809523Y-52311904D01*
X56904761Y-52407142D01*
X56952380Y-52550000D01*
X56952380Y-52788095D01*
X56952380Y-51264285D02*
X56952380Y-51835714D01*
X56952380Y-51550000D02*
X55952380Y-51550000D01*
X56095238Y-51645238D01*
X56190476Y-51740476D01*
X56238095Y-51835714D01*
X62083333Y-34857142D02*
X62035714Y-34904761D01*
X61892857Y-34952380D01*
X61797619Y-34952380D01*
X61654761Y-34904761D01*
X61559523Y-34809523D01*
X61511904Y-34714285D01*
X61464285Y-34523809D01*
X61464285Y-34380952D01*
X61511904Y-34190476D01*
X61559523Y-34095238D01*
X61654761Y-34000000D01*
X61797619Y-33952380D01*
X61892857Y-33952380D01*
X62035714Y-34000000D01*
X62083333Y-34047619D01*
X63035714Y-34952380D02*
X62464285Y-34952380D01*
X62750000Y-34952380D02*
X62750000Y-33952380D01*
X62654761Y-34095238D01*
X62559523Y-34190476D01*
X62464285Y-34238095D01*
X63602380Y-50411904D02*
X64411904Y-50411904D01*
X64507142Y-50364285D01*
X64554761Y-50316666D01*
X64602380Y-50221428D01*
X64602380Y-50030952D01*
X64554761Y-49935714D01*
X64507142Y-49888095D01*
X64411904Y-49840476D01*
X63602380Y-49840476D01*
X64030952Y-49221428D02*
X63983333Y-49316666D01*
X63935714Y-49364285D01*
X63840476Y-49411904D01*
X63792857Y-49411904D01*
X63697619Y-49364285D01*
X63650000Y-49316666D01*
X63602380Y-49221428D01*
X63602380Y-49030952D01*
X63650000Y-48935714D01*
X63697619Y-48888095D01*
X63792857Y-48840476D01*
X63840476Y-48840476D01*
X63935714Y-48888095D01*
X63983333Y-48935714D01*
X64030952Y-49030952D01*
X64030952Y-49221428D01*
X64078571Y-49316666D01*
X64126190Y-49364285D01*
X64221428Y-49411904D01*
X64411904Y-49411904D01*
X64507142Y-49364285D01*
X64554761Y-49316666D01*
X64602380Y-49221428D01*
X64602380Y-49030952D01*
X64554761Y-48935714D01*
X64507142Y-48888095D01*
X64411904Y-48840476D01*
X64221428Y-48840476D01*
X64126190Y-48888095D01*
X64078571Y-48935714D01*
X64030952Y-49030952D01*
X63468095Y-46052380D02*
X63468095Y-46861904D01*
X63515714Y-46957142D01*
X63563333Y-47004761D01*
X63658571Y-47052380D01*
X63849047Y-47052380D01*
X63944285Y-47004761D01*
X63991904Y-46957142D01*
X64039523Y-46861904D01*
X64039523Y-46052380D01*
X64420476Y-46052380D02*
X65087142Y-46052380D01*
X64658571Y-47052380D01*
X56502380Y-49211904D02*
X57311904Y-49211904D01*
X57407142Y-49164285D01*
X57454761Y-49116666D01*
X57502380Y-49021428D01*
X57502380Y-48830952D01*
X57454761Y-48735714D01*
X57407142Y-48688095D01*
X57311904Y-48640476D01*
X56502380Y-48640476D01*
X56502380Y-47735714D02*
X56502380Y-47926190D01*
X56550000Y-48021428D01*
X56597619Y-48069047D01*
X56740476Y-48164285D01*
X56930952Y-48211904D01*
X57311904Y-48211904D01*
X57407142Y-48164285D01*
X57454761Y-48116666D01*
X57502380Y-48021428D01*
X57502380Y-47830952D01*
X57454761Y-47735714D01*
X57407142Y-47688095D01*
X57311904Y-47640476D01*
X57073809Y-47640476D01*
X56978571Y-47688095D01*
X56930952Y-47735714D01*
X56883333Y-47830952D01*
X56883333Y-48021428D01*
X56930952Y-48116666D01*
X56978571Y-48164285D01*
X57073809Y-48211904D01*
X74838095Y-59552380D02*
X74838095Y-60361904D01*
X74885714Y-60457142D01*
X74933333Y-60504761D01*
X75028571Y-60552380D01*
X75219047Y-60552380D01*
X75314285Y-60504761D01*
X75361904Y-60457142D01*
X75409523Y-60361904D01*
X75409523Y-59552380D01*
X76409523Y-60552380D02*
X75838095Y-60552380D01*
X76123809Y-60552380D02*
X76123809Y-59552380D01*
X76028571Y-59695238D01*
X75933333Y-59790476D01*
X75838095Y-59838095D01*
X87041118Y-40681385D02*
X86468698Y-41253805D01*
X86435026Y-41354820D01*
X86435026Y-41422164D01*
X86468698Y-41523179D01*
X86603385Y-41657866D01*
X86704400Y-41691538D01*
X86771744Y-41691538D01*
X86872759Y-41657866D01*
X87445179Y-41085446D01*
X87714553Y-41354820D02*
X88152285Y-41792553D01*
X87647209Y-41826225D01*
X87748224Y-41927240D01*
X87781896Y-42028255D01*
X87781896Y-42095599D01*
X87748224Y-42196614D01*
X87579866Y-42364973D01*
X87478850Y-42398645D01*
X87411507Y-42398645D01*
X87310492Y-42364973D01*
X87108461Y-42162942D01*
X87074789Y-42061927D01*
X87074789Y-41994584D01*
%LPC*%
D12*
X61050000Y-53650000D03*
X58350000Y-53650000D03*
D13*
X60050000Y-35475000D03*
X60050000Y-36125000D03*
X60050000Y-36775000D03*
X60050000Y-37425000D03*
X64450000Y-37425000D03*
X64450000Y-36775000D03*
X64450000Y-36125000D03*
X64450000Y-35475000D03*
D14*
X55650000Y-46470000D03*
X71650000Y-46470000D03*
X55650000Y-43930000D03*
X71650000Y-43930000D03*
X55650000Y-41390000D03*
X71650000Y-41390000D03*
X55650000Y-38850000D03*
X71650000Y-38850000D03*
X55650000Y-36310000D03*
X71650000Y-36310000D03*
X55650000Y-33770000D03*
X71650000Y-33770000D03*
X55650000Y-31230000D03*
X71650000Y-31230000D03*
D15*
X55600000Y-60750000D03*
D16*
X55600000Y-58750000D03*
X55600000Y-56750000D03*
D12*
X73950000Y-52600000D03*
X71250000Y-52600000D03*
D17*
X68850000Y-37550000D03*
X68850000Y-34850000D03*
X63800000Y-54650000D03*
X63800000Y-51950000D03*
D18*
X76850000Y-31200000D03*
D19*
X79390000Y-31200000D03*
X81930000Y-31200000D03*
X84470000Y-31200000D03*
D18*
X92650000Y-31250000D03*
D19*
X92650000Y-33790000D03*
X92650000Y-36330000D03*
X92650000Y-38870000D03*
X92650000Y-41410000D03*
X92650000Y-43950000D03*
X92650000Y-46490000D03*
X92650000Y-49030000D03*
X92650000Y-51570000D03*
X92650000Y-54110000D03*
X92650000Y-56650000D03*
X92650000Y-59190000D03*
X62100000Y-62550000D03*
D18*
X59560000Y-62550000D03*
X74200000Y-49550000D03*
D19*
X71660000Y-49550000D03*
D20*
X55050000Y-50950000D03*
X55050000Y-53150000D03*
D21*
X64250000Y-32250000D03*
X60250000Y-32250000D03*
D22*
X65950000Y-52080000D03*
X67450000Y-52080000D03*
X68950000Y-52080000D03*
D23*
X67450000Y-48120000D03*
D24*
G36*
X68450000Y-50095000D02*
G01*
X67950000Y-50845000D01*
X66950000Y-50845000D01*
X66450000Y-50095000D01*
X68450000Y-50095000D01*
G37*
D25*
X66660000Y-44800000D03*
X66660000Y-43300000D03*
X66660000Y-41800000D03*
D26*
X62700000Y-43300000D03*
D24*
G36*
X64675000Y-42300000D02*
G01*
X65425000Y-42800000D01*
X65425000Y-43800000D01*
X64675000Y-44300000D01*
X64675000Y-42300000D01*
G37*
D22*
X58850000Y-50880000D03*
X60350000Y-50880000D03*
X61850000Y-50880000D03*
D23*
X60350000Y-46920000D03*
D24*
G36*
X61350000Y-48895000D02*
G01*
X60850000Y-49645000D01*
X59850000Y-49645000D01*
X59350000Y-48895000D01*
X61350000Y-48895000D01*
G37*
D27*
X84490000Y-57750000D03*
X81950000Y-57750000D03*
X79410000Y-57750000D03*
X76870000Y-57750000D03*
X69250000Y-57750000D03*
X66710000Y-57750000D03*
D24*
G36*
X81270621Y-40458311D02*
G01*
X81447398Y-40281534D01*
X82366637Y-41200773D01*
X82189860Y-41377550D01*
X81270621Y-40458311D01*
G37*
G36*
X80917068Y-40811864D02*
G01*
X81093845Y-40635087D01*
X82013084Y-41554326D01*
X81836307Y-41731103D01*
X80917068Y-40811864D01*
G37*
G36*
X80563514Y-41165418D02*
G01*
X80740291Y-40988641D01*
X81659530Y-41907880D01*
X81482753Y-42084657D01*
X80563514Y-41165418D01*
G37*
G36*
X80209961Y-41518971D02*
G01*
X80386738Y-41342194D01*
X81305977Y-42261433D01*
X81129200Y-42438210D01*
X80209961Y-41518971D01*
G37*
G36*
X79856408Y-41872524D02*
G01*
X80033185Y-41695747D01*
X80952424Y-42614986D01*
X80775647Y-42791763D01*
X79856408Y-41872524D01*
G37*
G36*
X79502854Y-42226078D02*
G01*
X79679631Y-42049301D01*
X80598870Y-42968540D01*
X80422093Y-43145317D01*
X79502854Y-42226078D01*
G37*
G36*
X79149301Y-42579631D02*
G01*
X79326078Y-42402854D01*
X80245317Y-43322093D01*
X80068540Y-43498870D01*
X79149301Y-42579631D01*
G37*
G36*
X78795747Y-42933185D02*
G01*
X78972524Y-42756408D01*
X79891763Y-43675647D01*
X79714986Y-43852424D01*
X78795747Y-42933185D01*
G37*
G36*
X78442194Y-43286738D02*
G01*
X78618971Y-43109961D01*
X79538210Y-44029200D01*
X79361433Y-44205977D01*
X78442194Y-43286738D01*
G37*
G36*
X78088641Y-43640291D02*
G01*
X78265418Y-43463514D01*
X79184657Y-44382753D01*
X79007880Y-44559530D01*
X78088641Y-43640291D01*
G37*
G36*
X77735087Y-43993845D02*
G01*
X77911864Y-43817068D01*
X78831103Y-44736307D01*
X78654326Y-44913084D01*
X77735087Y-43993845D01*
G37*
G36*
X77381534Y-44347398D02*
G01*
X77558311Y-44170621D01*
X78477550Y-45089860D01*
X78300773Y-45266637D01*
X77381534Y-44347398D01*
G37*
G36*
X77558311Y-47529379D02*
G01*
X77381534Y-47352602D01*
X78300773Y-46433363D01*
X78477550Y-46610140D01*
X77558311Y-47529379D01*
G37*
G36*
X77911864Y-47882932D02*
G01*
X77735087Y-47706155D01*
X78654326Y-46786916D01*
X78831103Y-46963693D01*
X77911864Y-47882932D01*
G37*
G36*
X78265418Y-48236486D02*
G01*
X78088641Y-48059709D01*
X79007880Y-47140470D01*
X79184657Y-47317247D01*
X78265418Y-48236486D01*
G37*
G36*
X78618971Y-48590039D02*
G01*
X78442194Y-48413262D01*
X79361433Y-47494023D01*
X79538210Y-47670800D01*
X78618971Y-48590039D01*
G37*
G36*
X78972524Y-48943592D02*
G01*
X78795747Y-48766815D01*
X79714986Y-47847576D01*
X79891763Y-48024353D01*
X78972524Y-48943592D01*
G37*
G36*
X79326078Y-49297146D02*
G01*
X79149301Y-49120369D01*
X80068540Y-48201130D01*
X80245317Y-48377907D01*
X79326078Y-49297146D01*
G37*
G36*
X79679631Y-49650699D02*
G01*
X79502854Y-49473922D01*
X80422093Y-48554683D01*
X80598870Y-48731460D01*
X79679631Y-49650699D01*
G37*
G36*
X80033185Y-50004253D02*
G01*
X79856408Y-49827476D01*
X80775647Y-48908237D01*
X80952424Y-49085014D01*
X80033185Y-50004253D01*
G37*
G36*
X80386738Y-50357806D02*
G01*
X80209961Y-50181029D01*
X81129200Y-49261790D01*
X81305977Y-49438567D01*
X80386738Y-50357806D01*
G37*
G36*
X80740291Y-50711359D02*
G01*
X80563514Y-50534582D01*
X81482753Y-49615343D01*
X81659530Y-49792120D01*
X80740291Y-50711359D01*
G37*
G36*
X81093845Y-51064913D02*
G01*
X80917068Y-50888136D01*
X81836307Y-49968897D01*
X82013084Y-50145674D01*
X81093845Y-51064913D01*
G37*
G36*
X81447398Y-51418466D02*
G01*
X81270621Y-51241689D01*
X82189860Y-50322450D01*
X82366637Y-50499227D01*
X81447398Y-51418466D01*
G37*
G36*
X83533363Y-50499227D02*
G01*
X83710140Y-50322450D01*
X84629379Y-51241689D01*
X84452602Y-51418466D01*
X83533363Y-50499227D01*
G37*
G36*
X83886916Y-50145674D02*
G01*
X84063693Y-49968897D01*
X84982932Y-50888136D01*
X84806155Y-51064913D01*
X83886916Y-50145674D01*
G37*
G36*
X84240470Y-49792120D02*
G01*
X84417247Y-49615343D01*
X85336486Y-50534582D01*
X85159709Y-50711359D01*
X84240470Y-49792120D01*
G37*
G36*
X84594023Y-49438567D02*
G01*
X84770800Y-49261790D01*
X85690039Y-50181029D01*
X85513262Y-50357806D01*
X84594023Y-49438567D01*
G37*
G36*
X84947576Y-49085014D02*
G01*
X85124353Y-48908237D01*
X86043592Y-49827476D01*
X85866815Y-50004253D01*
X84947576Y-49085014D01*
G37*
G36*
X85301130Y-48731460D02*
G01*
X85477907Y-48554683D01*
X86397146Y-49473922D01*
X86220369Y-49650699D01*
X85301130Y-48731460D01*
G37*
G36*
X85654683Y-48377907D02*
G01*
X85831460Y-48201130D01*
X86750699Y-49120369D01*
X86573922Y-49297146D01*
X85654683Y-48377907D01*
G37*
G36*
X86008237Y-48024353D02*
G01*
X86185014Y-47847576D01*
X87104253Y-48766815D01*
X86927476Y-48943592D01*
X86008237Y-48024353D01*
G37*
G36*
X86361790Y-47670800D02*
G01*
X86538567Y-47494023D01*
X87457806Y-48413262D01*
X87281029Y-48590039D01*
X86361790Y-47670800D01*
G37*
G36*
X86715343Y-47317247D02*
G01*
X86892120Y-47140470D01*
X87811359Y-48059709D01*
X87634582Y-48236486D01*
X86715343Y-47317247D01*
G37*
G36*
X87068897Y-46963693D02*
G01*
X87245674Y-46786916D01*
X88164913Y-47706155D01*
X87988136Y-47882932D01*
X87068897Y-46963693D01*
G37*
G36*
X87422450Y-46610140D02*
G01*
X87599227Y-46433363D01*
X88518466Y-47352602D01*
X88341689Y-47529379D01*
X87422450Y-46610140D01*
G37*
G36*
X87599227Y-45266637D02*
G01*
X87422450Y-45089860D01*
X88341689Y-44170621D01*
X88518466Y-44347398D01*
X87599227Y-45266637D01*
G37*
G36*
X87245674Y-44913084D02*
G01*
X87068897Y-44736307D01*
X87988136Y-43817068D01*
X88164913Y-43993845D01*
X87245674Y-44913084D01*
G37*
G36*
X86892120Y-44559530D02*
G01*
X86715343Y-44382753D01*
X87634582Y-43463514D01*
X87811359Y-43640291D01*
X86892120Y-44559530D01*
G37*
G36*
X86538567Y-44205977D02*
G01*
X86361790Y-44029200D01*
X87281029Y-43109961D01*
X87457806Y-43286738D01*
X86538567Y-44205977D01*
G37*
G36*
X86185014Y-43852424D02*
G01*
X86008237Y-43675647D01*
X86927476Y-42756408D01*
X87104253Y-42933185D01*
X86185014Y-43852424D01*
G37*
G36*
X85831460Y-43498870D02*
G01*
X85654683Y-43322093D01*
X86573922Y-42402854D01*
X86750699Y-42579631D01*
X85831460Y-43498870D01*
G37*
G36*
X85477907Y-43145317D02*
G01*
X85301130Y-42968540D01*
X86220369Y-42049301D01*
X86397146Y-42226078D01*
X85477907Y-43145317D01*
G37*
G36*
X85124353Y-42791763D02*
G01*
X84947576Y-42614986D01*
X85866815Y-41695747D01*
X86043592Y-41872524D01*
X85124353Y-42791763D01*
G37*
G36*
X84770800Y-42438210D02*
G01*
X84594023Y-42261433D01*
X85513262Y-41342194D01*
X85690039Y-41518971D01*
X84770800Y-42438210D01*
G37*
G36*
X84417247Y-42084657D02*
G01*
X84240470Y-41907880D01*
X85159709Y-40988641D01*
X85336486Y-41165418D01*
X84417247Y-42084657D01*
G37*
G36*
X84063693Y-41731103D02*
G01*
X83886916Y-41554326D01*
X84806155Y-40635087D01*
X84982932Y-40811864D01*
X84063693Y-41731103D01*
G37*
G36*
X83710140Y-41377550D02*
G01*
X83533363Y-41200773D01*
X84452602Y-40281534D01*
X84629379Y-40458311D01*
X83710140Y-41377550D01*
G37*
M02*
